<svg width="13" height="16" viewBox="0 0 13 16" fill="none" xmlns="http://www.w3.org/2000/svg">
<path d="M10.8572 8.5003C10.8796 10.9216 12.9768 11.7274 13 11.7376C12.9823 11.7944 12.6649 12.8859 11.8951 14.0133C11.2297 14.988 10.5391 15.9591 9.45109 15.9792C8.38206 15.9989 8.0383 15.3439 6.8161 15.3439C5.59426 15.3439 5.21234 15.9591 4.20038 15.9989C3.15022 16.0388 2.3505 14.945 1.67956 13.9738C0.308511 11.9874 -0.739254 8.36062 0.66763 5.91249C1.36654 4.69673 2.61554 3.92687 3.97123 3.90713C5.00246 3.88741 5.97579 4.6024 6.60622 4.6024C7.23625 4.6024 8.41906 3.74257 9.66254 3.86884C10.1831 3.89056 11.6443 4.07957 12.5826 5.45594C12.507 5.50291 10.8391 6.47599 10.8572 8.5003ZM8.84808 2.55464C9.40562 1.87831 9.78087 0.936799 9.6785 0C8.87485 0.0323694 7.90306 0.536681 7.32662 1.21264C6.81002 1.81123 6.3576 2.76931 6.47967 3.68757C7.37543 3.75702 8.29052 3.2314 8.84808 2.55464Z" fill="white"/>
</svg>
