<svg width="544" height="168" viewBox="0 0 544 168" fill="none" xmlns="http://www.w3.org/2000/svg">
<mask id="mask0_586_17925" style="mask-type:alpha" maskUnits="userSpaceOnUse" x="0" y="0" width="544" height="168">
<path d="M0 2.79069C0 1.24943 1.60235 0 3.57895 0H540.421C542.398 0 544 1.24944 544 2.7907V165.209C544 166.751 542.398 168 540.421 168H3.57893C1.60234 168 0 166.751 0 165.209V2.79069Z" fill="#1C1C1C"/>
</mask>
<g mask="url(#mask0_586_17925)">
<path d="M92.3976 296.427C92.3976 296.427 388.166 141.508 795.577 143.096C1203.02 144.677 586.219 646.067 586.219 646.067C586.231 646.05 620.403 617.749 620.403 617.749" stroke="#F9F9F9" stroke-opacity="0.12" stroke-width="0.877694"/>
<path d="M108.457 284.832C108.457 284.832 401.853 124.741 809.805 128.257C1217.74 131.773 609.002 651.519 609.002 651.519C609.014 651.502 642.731 622.162 642.731 622.162" stroke="#F9F9F9" stroke-opacity="0.12" stroke-width="0.877694"/>
<path d="M124.954 272.877C124.954 272.877 416.003 107.598 824.477 113.049C1232.94 118.504 632.221 656.588 632.221 656.588C632.233 656.571 665.495 626.193 665.495 626.193" stroke="#F9F9F9" stroke-opacity="0.12" stroke-width="0.877694"/>
<path d="M142.087 260.385C142.087 260.385 430.806 89.916 839.817 97.3023C1248.84 104.692 656.092 661.12 656.092 661.12C656.105 661.102 688.915 629.685 688.915 629.685" stroke="#F9F9F9" stroke-opacity="0.12" stroke-width="0.877694"/>
<path d="M159.29 247.827C159.29 247.827 445.684 72.1826 855.248 81.502C1264.81 90.8231 680.037 665.601 680.037 665.601C680.05 665.583 712.41 633.127 712.41 633.127" stroke="#F9F9F9" stroke-opacity="0.12" stroke-width="0.877694"/>
<path d="M176.589 235.207C176.589 235.207 460.683 54.3702 870.822 65.6226C1280.97 76.8791 704.108 670.007 704.108 670.007C704.121 669.989 736.032 636.494 736.032 636.494" stroke="#F9F9F9" stroke-opacity="0.12" stroke-width="0.877694"/>
<path d="M193.945 222.515C193.945 222.515 475.754 36.4826 886.512 49.6725C1297.27 62.8639 728.281 674.347 728.281 674.347C728.293 674.329 759.758 639.795 759.758 639.795" stroke="#F9F9F9" stroke-opacity="0.12" stroke-width="0.877694"/>
<path d="M211.358 209.769C211.358 209.769 490.897 18.5398 902.257 33.6776C1313.61 48.7984 752.493 678.648 752.493 678.648C752.506 678.63 783.527 643.055 783.527 643.055" stroke="#F9F9F9" stroke-opacity="0.12" stroke-width="0.877694"/>
<path d="M670.842 26.1125C670.842 26.1125 180.57 122.49 54.352 350.806C-71.863 579.105 1406.13 457.359 1406.13 457.359L1322.87 463.871" stroke="#F9F9F9" stroke-opacity="0.12" stroke-width="0.877694"/>
<path d="M693.673 15.1394C693.673 15.1394 211.94 113.76 82.7149 341.104C-46.5169 568.446 1401.43 438.669 1401.43 438.669L1319.87 445.637" stroke="#F9F9F9" stroke-opacity="0.12" stroke-width="0.877694"/>
<path d="M716.689 2.31648C716.689 2.31648 243.497 103.178 111.274 329.549C-20.9568 555.919 1396.9 418.128 1396.9 418.128L1317.05 425.549" stroke="#F9F9F9" stroke-opacity="0.12" stroke-width="0.877694"/>
<path d="M739.934 -10.634C739.934 -10.634 275.287 92.466 140.062 317.88C4.83063 543.292 1392.61 397.476 1392.61 397.476L1314.46 405.353" stroke="#F9F9F9" stroke-opacity="0.12" stroke-width="0.877694"/>
<path d="M763.366 -23.7174C763.366 -23.7174 307.277 81.6038 169.06 306.06C30.8471 530.498 1388.54 376.679 1388.54 376.679L1312.09 385.009" stroke="#F9F9F9" stroke-opacity="0.12" stroke-width="0.877694"/>
<path d="M787.014 -36.8591C787.014 -36.8591 339.476 70.6973 198.287 294.179C57.0926 517.659 1384.7 355.825 1384.7 355.825L1309.95 364.609" stroke="#F9F9F9" stroke-opacity="0.12" stroke-width="0.877694"/>
<path d="M811.582 -49.6486C811.582 -49.6486 372.598 60.1413 228.448 282.648C84.2927 505.154 1381.84 335.327 1381.84 335.327L1308.79 344.563" stroke="#F9F9F9" stroke-opacity="0.12" stroke-width="0.877694"/>
<path d="M836.508 -62.3946C836.508 -62.3946 406.083 49.6267 258.984 271.159C111.868 492.705 1379.31 314.889 1379.31 314.889L1307.97 324.579" stroke="#F9F9F9" stroke-opacity="0.12" stroke-width="0.877694"/>
<path d="M862.966 -74.3809C862.966 -74.3809 441.114 39.8541 291.055 260.442C141.002 481.013 1378.35 295.213 1378.35 295.213L1308.71 305.355" stroke="#F9F9F9" stroke-opacity="0.12" stroke-width="0.877694"/>
<path d="M890.607 -85.7981C890.607 -85.7981 477.321 30.6647 324.338 250.277C171.35 469.888 1378.6 276.094 1378.6 276.094L1310.67 286.689" stroke="#F9F9F9" stroke-opacity="0.12" stroke-width="0.877694"/>
<path d="M919.357 -96.681C919.357 -96.681 514.642 22.0077 358.749 240.644C202.851 459.279 1380 257.513 1380 257.513L1313.77 268.56" stroke="#F9F9F9" stroke-opacity="0.12" stroke-width="0.877694"/>
<path d="M949.113 -107.05C949.113 -107.05 552.975 13.8628 394.187 231.522C235.383 449.197 1382.45 239.454 1382.45 239.454L1317.93 250.952" stroke="#F9F9F9" stroke-opacity="0.12" stroke-width="0.877694"/>
<path d="M979.018 -116.821C979.018 -116.821 591.474 6.2976 429.786 223.012C268.104 439.709 1385.05 222.022 1385.05 222.022L1322.23 233.972" stroke="#F9F9F9" stroke-opacity="0.12" stroke-width="0.877694"/>
<path d="M1008.94 -126.05C1008.94 -126.05 629.988 -0.711587 465.44 215.025C300.886 430.761 1387.72 205.104 1387.72 205.104L1326.6 217.504" stroke="#F9F9F9" stroke-opacity="0.12" stroke-width="0.877694"/>
<path d="M1036.82 -134.446C1036.82 -134.446 666.464 -6.88921 499.072 207.869C331.678 422.627 1388.38 189.023 1388.38 189.023L1328.97 201.874" stroke="#F9F9F9" stroke-opacity="0.12" stroke-width="0.877694"/>
<path d="M1062.92 -142.09C1062.92 -142.09 701.177 -12.3334 530.952 201.462C360.728 415.258 1387.33 173.703 1387.33 173.703L1329.63 187.003" stroke="#F9F9F9" stroke-opacity="0.12" stroke-width="0.877694"/>
<path d="M1087.35 -149.066C1087.35 -149.066 734.22 -17.096 561.199 195.721C388.179 408.538 1384.64 159.049 1384.64 159.049L1328.65 172.8" stroke="#F9F9F9" stroke-opacity="0.12" stroke-width="0.877694"/>
<path d="M1110.24 -155.439C1110.24 -155.439 765.733 -21.2571 589.93 190.597C414.128 402.451 1380.44 145.034 1380.44 145.034C1380.46 145.037 1326.15 159.235 1326.15 159.235" stroke="#F9F9F9" stroke-opacity="0.12" stroke-width="0.877694"/>
</g>
</svg>
