<svg width="839" height="332" viewBox="0 0 839 332" fill="none" xmlns="http://www.w3.org/2000/svg">
<mask id="mask0_586_14444" style="mask-type:alpha" maskUnits="userSpaceOnUse" x="0" y="0" width="839" height="332">
<path d="M0 5.51494C0 2.46912 2.47127 0 5.51974 0H833.48C836.529 0 839 2.46913 839 5.51495V326.485C839 329.531 836.529 332 833.48 332H5.51972C2.47125 332 0 329.531 0 326.485V5.51494Z" fill="#1C1C1C"/>
</mask>
<g mask="url(#mask0_586_14444)">
<path d="M163.59 363.193C163.59 363.193 417.879 165.373 768.155 167.402C1118.46 169.42 588.157 809.657 588.157 809.657C588.168 809.635 617.547 773.496 617.547 773.496" stroke="#F9F9F9" stroke-opacity="0.12" stroke-width="0.877694"/>
<path d="M177.396 348.39C177.396 348.39 429.645 143.967 780.386 148.456C1131.11 152.945 607.743 816.621 607.743 816.621C607.754 816.599 636.742 779.135 636.742 779.135" stroke="#F9F9F9" stroke-opacity="0.12" stroke-width="0.877694"/>
<path d="M191.58 333.121C191.58 333.121 441.812 122.072 793.001 129.033C1144.18 135.998 627.707 823.09 627.707 823.09C627.718 823.068 656.315 784.278 656.315 784.278" stroke="#F9F9F9" stroke-opacity="0.12" stroke-width="0.877694"/>
<path d="M206.307 317.171C206.307 317.171 454.535 99.4952 806.185 108.927C1157.84 118.363 648.226 828.878 648.226 828.878C648.238 828.855 676.446 788.739 676.446 788.739" stroke="#F9F9F9" stroke-opacity="0.12" stroke-width="0.877694"/>
<path d="M221.1 301.138C221.1 301.138 467.329 76.8534 819.455 88.7536C1171.58 100.656 668.816 834.603 668.816 834.603C668.827 834.58 696.649 793.137 696.649 793.137" stroke="#F9F9F9" stroke-opacity="0.12" stroke-width="0.877694"/>
<path d="M235.975 285.022C235.975 285.022 480.227 54.1065 832.847 68.4749C1185.48 82.8486 689.514 840.227 689.514 840.227C689.525 840.204 716.961 797.434 716.961 797.434" stroke="#F9F9F9" stroke-opacity="0.12" stroke-width="0.877694"/>
<path d="M250.893 268.816C250.893 268.816 493.18 31.2675 846.333 48.1099C1199.48 64.9543 710.292 845.772 710.292 845.772C710.303 845.749 737.355 801.651 737.355 801.651" stroke="#F9F9F9" stroke-opacity="0.12" stroke-width="0.877694"/>
<path d="M265.871 252.54C265.871 252.54 506.206 8.35529 859.876 27.685C1213.54 46.9932 731.116 851.263 731.116 851.263C731.127 851.239 757.798 805.813 757.798 805.813" stroke="#F9F9F9" stroke-opacity="0.12" stroke-width="0.877694"/>
<path d="M660.912 18.0251C660.912 18.0251 239.397 141.092 130.88 432.634C22.3652 724.154 1293.08 568.693 1293.08 568.693L1221.49 577.009" stroke="#F9F9F9" stroke-opacity="0.12" stroke-width="0.877694"/>
<path d="M680.54 4.01133C680.54 4.01133 266.366 129.942 155.264 420.243C44.1559 710.542 1289.04 544.827 1289.04 544.827L1218.92 553.724" stroke="#F9F9F9" stroke-opacity="0.12" stroke-width="0.877694"/>
<path d="M700.329 -12.3583C700.329 -12.3583 293.499 116.434 179.818 405.492C66.1323 694.549 1285.15 518.6 1285.15 518.6L1216.49 528.077" stroke="#F9F9F9" stroke-opacity="0.12" stroke-width="0.877694"/>
<path d="M720.312 -28.9006C720.312 -28.9006 320.828 102.75 204.567 390.586C88.3002 678.421 1281.46 492.225 1281.46 492.225L1214.26 502.283" stroke="#F9F9F9" stroke-opacity="0.12" stroke-width="0.877694"/>
<path d="M740.46 -45.6051C740.46 -45.6051 348.334 88.8819 229.501 375.495C110.671 662.085 1277.96 465.671 1277.96 465.671L1212.23 476.307" stroke="#F9F9F9" stroke-opacity="0.12" stroke-width="0.877694"/>
<path d="M760.789 -62.3845C760.789 -62.3845 376.015 74.9568 254.627 360.326C133.234 645.693 1274.66 439.043 1274.66 439.043L1210.39 450.259" stroke="#F9F9F9" stroke-opacity="0.12" stroke-width="0.877694"/>
<path d="M781.914 -78.7178C781.914 -78.7178 404.494 61.4753 280.56 345.6C156.621 629.722 1272.2 412.866 1272.2 412.866L1209.4 424.66" stroke="#F9F9F9" stroke-opacity="0.12" stroke-width="0.877694"/>
<path d="M803.346 -94.9927C803.346 -94.9927 433.285 48.0498 306.815 330.929C180.331 613.827 1270.03 386.769 1270.03 386.769L1208.69 399.142" stroke="#F9F9F9" stroke-opacity="0.12" stroke-width="0.877694"/>
<path d="M826.093 -110.297C826.093 -110.297 463.402 35.5724 334.388 317.246C205.379 598.899 1269.2 361.646 1269.2 361.646L1209.33 374.596" stroke="#F9F9F9" stroke-opacity="0.12" stroke-width="0.877694"/>
<path d="M849.853 -124.879C849.853 -124.879 494.527 23.8353 362.999 304.263C231.466 584.69 1269.41 337.23 1269.41 337.23L1211.01 350.759" stroke="#F9F9F9" stroke-opacity="0.12" stroke-width="0.877694"/>
<path d="M874.572 -138.775C874.572 -138.775 526.615 12.7817 392.585 291.963C258.55 571.143 1270.61 313.504 1270.61 313.504L1213.67 327.61" stroke="#F9F9F9" stroke-opacity="0.12" stroke-width="0.877694"/>
<path d="M900.159 -152.014C900.159 -152.014 559.576 2.382 423.057 280.316C286.524 558.27 1272.73 290.445 1272.73 290.445L1217.25 305.126" stroke="#F9F9F9" stroke-opacity="0.12" stroke-width="0.877694"/>
<path d="M925.866 -164.492C925.866 -164.492 592.672 -7.27905 453.659 269.448C314.652 546.154 1274.95 268.185 1274.95 268.185L1220.94 283.444" stroke="#F9F9F9" stroke-opacity="0.12" stroke-width="0.877694"/>
<path d="M951.595 -176.278C951.595 -176.278 625.786 -16.2302 484.314 259.249C342.838 534.727 1277.25 246.581 1277.25 246.581L1224.71 262.414" stroke="#F9F9F9" stroke-opacity="0.12" stroke-width="0.877694"/>
<path d="M975.566 -186.995C975.566 -186.995 657.149 -24.1148 513.233 250.115C369.315 524.344 1277.82 226.05 1277.82 226.05L1226.75 242.46" stroke="#F9F9F9" stroke-opacity="0.12" stroke-width="0.877694"/>
<path d="M998.005 -196.759C998.005 -196.759 686.993 -31.0698 540.641 241.931C394.289 514.931 1276.92 206.484 1276.92 206.484L1227.31 223.467" stroke="#F9F9F9" stroke-opacity="0.12" stroke-width="0.877694"/>
<path d="M1019.01 -205.667C1019.01 -205.667 715.403 -37.1515 566.646 234.6C417.891 506.351 1274.61 187.772 1274.61 187.772L1226.47 205.33" stroke="#F9F9F9" stroke-opacity="0.12" stroke-width="0.877694"/>
<path d="M1038.69 -213.803C1038.69 -213.803 742.495 -42.4636 591.347 228.058C440.2 498.58 1271 169.878 1271 169.878C1271.01 169.881 1224.32 188.011 1224.32 188.011" stroke="#F9F9F9" stroke-opacity="0.12" stroke-width="0.877694"/>
</g>
</svg>
