<svg width="1262" height="566" viewBox="0 0 1262 566" fill="none" xmlns="http://www.w3.org/2000/svg">
<mask id="mask0_638_5156" style="mask-type:alpha" maskUnits="userSpaceOnUse" x="0" y="0" width="1262" height="566">
<path d="M0 9.40198C0 4.20941 3.71722 0 8.30263 0H1253.7C1258.28 0 1262 4.20942 1262 9.40199V556.598C1262 561.791 1258.28 566 1253.7 566H8.3026C3.71718 566 0 561.791 0 556.598V9.40198Z" fill="#1C1C1C"/>
</mask>
<g mask="url(#mask0_638_5156)">
<path d="M929.136 369.977C929.136 369.977 1125.41 212.271 1395.77 213.888C1666.15 215.498 1256.84 725.905 1256.84 725.905C1256.85 725.888 1279.52 697.078 1279.52 697.078" stroke="#F9F9F9" stroke-opacity="0.15" stroke-width="0.877694"/>
<path d="M939.793 358.174C939.793 358.174 1134.49 195.204 1405.21 198.782C1675.92 202.361 1271.96 731.456 1271.96 731.456C1271.96 731.438 1294.34 701.571 1294.34 701.571" stroke="#F9F9F9" stroke-opacity="0.15" stroke-width="0.877694"/>
<path d="M950.74 346.002C950.74 346.002 1143.88 177.75 1414.94 183.3C1686.01 188.852 1287.36 736.615 1287.36 736.615C1287.37 736.597 1309.44 705.672 1309.44 705.672" stroke="#F9F9F9" stroke-opacity="0.15" stroke-width="0.877694"/>
<path d="M962.108 333.286C962.108 333.286 1153.7 159.751 1425.12 167.27C1696.55 174.793 1303.2 741.228 1303.2 741.228C1303.21 741.21 1324.98 709.228 1324.98 709.228" stroke="#F9F9F9" stroke-opacity="0.15" stroke-width="0.877694"/>
<path d="M973.525 320.502C973.525 320.502 1163.58 141.699 1435.36 151.186C1707.15 160.674 1319.09 745.79 1319.09 745.79C1319.1 745.772 1340.58 712.733 1340.58 712.733" stroke="#F9F9F9" stroke-opacity="0.15" stroke-width="0.877694"/>
<path d="M985.008 307.655C985.008 307.655 1173.53 123.565 1445.7 135.02C1717.88 146.479 1335.07 750.275 1335.07 750.275C1335.08 750.257 1356.26 716.159 1356.26 716.159" stroke="#F9F9F9" stroke-opacity="0.15" stroke-width="0.877694"/>
<path d="M996.522 294.734C996.522 294.734 1183.53 105.356 1456.11 118.783C1728.69 132.212 1351.11 754.693 1351.11 754.693C1351.12 754.675 1372 719.519 1372 719.519" stroke="#F9F9F9" stroke-opacity="0.15" stroke-width="0.877694"/>
<path d="M1008.08 281.759C1008.08 281.759 1193.58 87.091 1466.56 102.501C1739.54 117.894 1367.18 759.072 1367.18 759.072C1367.19 759.053 1387.77 722.838 1387.77 722.838" stroke="#F9F9F9" stroke-opacity="0.15" stroke-width="0.877694"/>
<path d="M1312.99 94.8007C1312.99 94.8007 987.648 192.912 903.89 425.334C820.133 657.739 1800.93 533.803 1800.93 533.803L1745.68 540.433" stroke="#F9F9F9" stroke-opacity="0.15" stroke-width="0.877694"/>
<path d="M1328.14 83.6294C1328.14 83.6294 1008.46 184.024 922.71 415.457C836.952 646.888 1797.81 514.777 1797.81 514.777L1743.69 521.87" stroke="#F9F9F9" stroke-opacity="0.15" stroke-width="0.877694"/>
<path d="M1343.42 70.5765C1343.42 70.5765 1029.41 173.252 941.662 403.694C853.914 634.136 1794.81 493.866 1794.81 493.866L1741.82 501.421" stroke="#F9F9F9" stroke-opacity="0.15" stroke-width="0.877694"/>
<path d="M1358.84 57.3925C1358.84 57.3925 1050.5 162.347 960.764 391.815C871.024 621.281 1791.96 472.843 1791.96 472.843L1740.1 480.861" stroke="#F9F9F9" stroke-opacity="0.15" stroke-width="0.877694"/>
<path d="M1374.39 44.074C1374.39 44.074 1071.73 151.289 980.011 379.782C888.293 608.258 1789.26 451.672 1789.26 451.672L1738.53 460.152" stroke="#F9F9F9" stroke-opacity="0.15" stroke-width="0.877694"/>
<path d="M1390.08 30.6963C1390.08 30.6963 1093.1 140.187 999.404 367.688C905.707 595.188 1786.71 430.443 1786.71 430.443L1737.11 439.385" stroke="#F9F9F9" stroke-opacity="0.15" stroke-width="0.877694"/>
<path d="M1406.39 17.6771C1406.39 17.6771 1115.08 129.442 1019.42 355.951C923.758 582.458 1784.81 409.577 1784.81 409.577L1736.34 418.979" stroke="#F9F9F9" stroke-opacity="0.15" stroke-width="0.877694"/>
<path d="M1422.93 4.70055C1422.93 4.70055 1137.3 118.737 1039.68 344.253C942.058 569.784 1783.14 388.77 1783.14 388.77L1735.8 398.634" stroke="#F9F9F9" stroke-opacity="0.15" stroke-width="0.877694"/>
<path d="M1440.49 -7.49998C1440.49 -7.49998 1160.54 108.79 1060.97 333.345C961.39 557.883 1782.5 368.742 1782.5 368.742L1736.28 379.066" stroke="#F9F9F9" stroke-opacity="0.15" stroke-width="0.877694"/>
<path d="M1458.83 -19.1236C1458.83 -19.1236 1184.57 99.4339 1083.05 322.996C981.527 546.557 1782.66 349.278 1782.66 349.278L1737.58 360.063" stroke="#F9F9F9" stroke-opacity="0.15" stroke-width="0.877694"/>
<path d="M1477.91 -30.2021C1477.91 -30.2021 1209.34 90.6212 1105.89 313.189C1002.43 535.757 1783.59 330.362 1783.59 330.362L1739.64 341.608" stroke="#F9F9F9" stroke-opacity="0.15" stroke-width="0.877694"/>
<path d="M1497.66 -40.7579C1497.66 -40.7579 1234.78 82.3293 1129.41 303.904C1024.02 525.493 1785.22 311.978 1785.22 311.978L1742.4 323.682" stroke="#F9F9F9" stroke-opacity="0.15" stroke-width="0.877694"/>
<path d="M1517.5 -50.7041C1517.5 -50.7041 1260.32 74.6287 1153.03 295.24C1045.73 515.835 1786.94 294.233 1786.94 294.233L1745.25 306.398" stroke="#F9F9F9" stroke-opacity="0.15" stroke-width="0.877694"/>
<path d="M1537.36 -60.0989C1537.36 -60.0989 1285.88 67.4937 1176.69 287.11C1067.49 506.726 1788.71 277.012 1788.71 277.012L1748.16 289.634" stroke="#F9F9F9" stroke-opacity="0.15" stroke-width="0.877694"/>
<path d="M1555.86 -68.6463C1555.86 -68.6463 1310.09 61.2046 1199.01 279.825C1087.92 498.446 1789.15 260.641 1789.15 260.641L1749.73 273.723" stroke="#F9F9F9" stroke-opacity="0.15" stroke-width="0.877694"/>
<path d="M1573.18 -76.4278C1573.18 -76.4278 1333.12 55.6625 1220.16 273.303C1107.2 490.944 1788.46 245.045 1788.46 245.045L1750.17 258.584" stroke="#F9F9F9" stroke-opacity="0.15" stroke-width="0.877694"/>
<path d="M1589.39 -83.5307C1589.39 -83.5307 1355.05 50.8131 1240.24 267.458C1125.42 484.103 1786.68 230.126 1786.68 230.126L1749.52 244.124" stroke="#F9F9F9" stroke-opacity="0.15" stroke-width="0.877694"/>
<path d="M1604.58 -90.0171C1604.58 -90.0171 1375.96 46.5779 1259.3 262.242C1142.64 477.907 1783.89 215.86 1783.89 215.86C1783.9 215.863 1747.86 230.316 1747.86 230.316" stroke="#F9F9F9" stroke-opacity="0.15" stroke-width="0.877694"/>
</g>
</svg>
