<svg width="1520" height="507" viewBox="0 0 1520 507" fill="none" xmlns="http://www.w3.org/2000/svg">
<mask id="mask0_638_1104" style="mask-type:alpha" maskUnits="userSpaceOnUse" x="0" y="0" width="1520" height="507">
<path d="M0 8.42192C0 3.77062 4.47715 0 10 0H1510C1515.52 0 1520 3.77063 1520 8.42193V498.578C1520 503.229 1515.52 507 1510 507H9.99996C4.47711 507 0 503.229 0 498.578V8.42192Z" fill="#1C1C1C"/>
</mask>
<g mask="url(#mask0_638_1104)">
<path d="M989.372 514.665C989.372 514.665 1236.61 295.775 1578.12 299.177C1919.66 302.567 1404.86 1011.95 1404.86 1011.95C1404.87 1011.93 1433.39 971.884 1433.39 971.884" stroke="#F9F9F9" stroke-opacity="0.12" stroke-width="0.877694"/>
<path d="M1002.78 498.266C1002.78 498.266 1248 272.035 1589.98 278.17C1931.94 284.306 1423.98 1019.75 1423.98 1019.75C1423.99 1019.73 1452.12 978.207 1452.12 978.207" stroke="#F9F9F9" stroke-opacity="0.12" stroke-width="0.877694"/>
<path d="M1016.56 481.358C1016.56 481.358 1259.79 247.761 1602.21 256.644C1944.63 265.531 1443.47 1027.01 1443.47 1027.01C1443.48 1026.98 1471.23 983.989 1471.23 983.989" stroke="#F9F9F9" stroke-opacity="0.12" stroke-width="0.877694"/>
<path d="M1030.86 463.687C1030.86 463.687 1272.12 222.723 1615 234.351C1957.88 245.985 1463.49 1033.5 1463.49 1033.5C1463.5 1033.47 1490.87 989.007 1490.87 989.007" stroke="#F9F9F9" stroke-opacity="0.12" stroke-width="0.877694"/>
<path d="M1045.23 445.923C1045.23 445.923 1284.51 197.612 1627.86 211.984C1971.21 226.358 1483.59 1039.92 1483.59 1039.92C1483.6 1039.89 1510.58 993.954 1510.58 993.954" stroke="#F9F9F9" stroke-opacity="0.12" stroke-width="0.877694"/>
<path d="M1059.68 428.073C1059.68 428.073 1297.01 172.391 1640.85 189.506C1984.7 206.626 1503.79 1046.24 1503.79 1046.24C1503.8 1046.21 1530.4 998.796 1530.4 998.796" stroke="#F9F9F9" stroke-opacity="0.12" stroke-width="0.877694"/>
<path d="M1074.16 410.12C1074.16 410.12 1309.56 147.063 1653.93 166.928C1998.3 186.795 1524.07 1052.46 1524.07 1052.46C1524.08 1052.44 1550.3 1003.54 1550.3 1003.54" stroke="#F9F9F9" stroke-opacity="0.12" stroke-width="0.877694"/>
<path d="M1088.71 392.093C1088.71 392.093 1322.18 121.66 1667.06 144.289C2011.94 166.894 1544.38 1058.63 1544.38 1058.63C1544.39 1058.61 1570.24 1008.24 1570.24 1008.24" stroke="#F9F9F9" stroke-opacity="0.12" stroke-width="0.877694"/>
<path d="M1473.04 132.909C1473.04 132.909 1062.51 268.221 957.723 591.687C852.938 915.129 2091.3 746.619 2091.3 746.619L2021.53 755.621" stroke="#F9F9F9" stroke-opacity="0.12" stroke-width="0.877694"/>
<path d="M1492.13 117.411C1492.13 117.411 1088.77 255.928 981.454 578.007C874.137 900.084 2087.28 720.1 2087.28 720.1L2018.94 729.753" stroke="#F9F9F9" stroke-opacity="0.12" stroke-width="0.877694"/>
<path d="M1511.37 99.2876C1511.37 99.2876 1115.17 241.006 1005.34 561.697C895.509 882.386 2083.39 690.95 2083.39 690.95L2016.48 701.252" stroke="#F9F9F9" stroke-opacity="0.12" stroke-width="0.877694"/>
<path d="M1530.79 80.9806C1530.79 80.9806 1141.77 225.899 1029.42 545.223C917.066 864.545 2079.7 661.644 2079.7 661.644L2014.22 672.595" stroke="#F9F9F9" stroke-opacity="0.12" stroke-width="0.877694"/>
<path d="M1550.38 62.4964C1550.38 62.4964 1168.54 210.589 1053.67 528.546C938.817 846.479 2076.19 632.142 2076.19 632.142L2012.15 643.74" stroke="#F9F9F9" stroke-opacity="0.12" stroke-width="0.877694"/>
<path d="M1570.14 43.9225C1570.14 43.9225 1195.48 195.209 1078.12 511.776C960.759 828.342 2072.88 602.552 2072.88 602.552L2010.27 614.8" stroke="#F9F9F9" stroke-opacity="0.12" stroke-width="0.877694"/>
<path d="M1590.68 25.8525C1590.68 25.8525 1223.2 180.331 1103.36 495.507C983.508 810.682 2070.4 573.472 2070.4 573.472L2009.21 586.366" stroke="#F9F9F9" stroke-opacity="0.12" stroke-width="0.877694"/>
<path d="M1611.52 7.84381C1611.52 7.84381 1251.22 165.511 1128.9 479.296C1006.57 793.102 2068.19 544.476 2068.19 544.476L2008.43 558.018" stroke="#F9F9F9" stroke-opacity="0.12" stroke-width="0.877694"/>
<path d="M1633.64 -9.07944C1633.64 -9.07944 1280.54 151.752 1155.74 464.19C1030.94 776.604 2067.29 516.569 2067.29 516.569L2008.97 530.757" stroke="#F9F9F9" stroke-opacity="0.12" stroke-width="0.877694"/>
<path d="M1656.76 -25.1971C1656.76 -25.1971 1310.84 138.818 1183.58 449.864C1056.32 760.908 2067.42 489.451 2067.42 489.451L2010.52 504.286" stroke="#F9F9F9" stroke-opacity="0.12" stroke-width="0.877694"/>
<path d="M1680.81 -40.5468C1680.81 -40.5468 1342.09 126.649 1212.39 436.302C1082.68 745.954 2068.5 463.106 2068.5 463.106L2013.04 478.587" stroke="#F9F9F9" stroke-opacity="0.12" stroke-width="0.877694"/>
<path d="M1705.71 -55.1734C1705.71 -55.1734 1374.19 115.201 1242.06 423.461C1109.91 731.742 2070.49 437.495 2070.49 437.495L2016.45 453.62" stroke="#F9F9F9" stroke-opacity="0.12" stroke-width="0.877694"/>
<path d="M1730.73 -68.9446C1730.73 -68.9446 1406.42 104.583 1271.85 411.494C1137.29 718.38 2072.58 412.782 2072.58 412.782L2019.97 429.553" stroke="#F9F9F9" stroke-opacity="0.12" stroke-width="0.877694"/>
<path d="M1755.77 -81.9542C1755.77 -81.9542 1438.68 94.746 1301.7 400.263C1164.73 705.778 2074.74 388.791 2074.74 388.791L2023.57 406.205" stroke="#F9F9F9" stroke-opacity="0.12" stroke-width="0.877694"/>
<path d="M1779.11 -93.7828C1779.11 -93.7828 1469.23 86.0879 1329.87 390.209C1190.51 694.329 2075.23 365.985 2075.23 365.985L2025.49 384.044" stroke="#F9F9F9" stroke-opacity="0.12" stroke-width="0.877694"/>
<path d="M1800.95 -104.548C1800.95 -104.548 1498.3 78.4672 1356.56 381.215C1214.82 683.963 2074.28 344.256 2074.28 344.256L2025.98 362.957" stroke="#F9F9F9" stroke-opacity="0.12" stroke-width="0.877694"/>
<path d="M1821.4 -114.375C1821.4 -114.375 1525.98 71.8038 1381.89 373.156C1237.81 674.508 2071.97 323.463 2071.97 323.463L2025.09 342.808" stroke="#F9F9F9" stroke-opacity="0.12" stroke-width="0.877694"/>
<path d="M1840.56 -123.349C1840.56 -123.349 1552.38 65.9906 1405.95 365.969C1259.53 665.947 2068.38 303.574 2068.38 303.574C2068.4 303.578 2022.94 323.562 2022.94 323.562" stroke="#F9F9F9" stroke-opacity="0.12" stroke-width="0.877694"/>
</g>
</svg>
