<svg width="1920" height="1188" viewBox="0 0 1920 1188" fill="none" xmlns="http://www.w3.org/2000/svg">
<mask id="mask0_638_1256" style="mask-type:alpha" maskUnits="userSpaceOnUse" x="0" y="0" width="1920" height="1188">
<rect width="1920" height="1188" rx="10" transform="matrix(-1 0 0 1 1920 0)" fill="#1C1C1C"/>
</mask>
<g mask="url(#mask0_638_1256)">
<path d="M1357.13 973.99C1357.13 973.99 1545.05 807.429 1798.09 808.77C2051.15 810.102 1654.43 1348.86 1654.43 1348.86C1654.44 1348.85 1676.43 1318.43 1676.43 1318.43" stroke="white" stroke-opacity="0.09" stroke-width="0.877694"/>
<path d="M1367.46 961.742C1367.46 961.742 1554.01 789.677 1807.28 793.085C2060.53 796.493 1668.41 1354.81 1668.41 1354.81C1668.42 1354.79 1690.15 1323.27 1690.15 1323.27" stroke="white" stroke-opacity="0.09" stroke-width="0.877694"/>
<path d="M1378.07 949.118C1378.07 949.118 1563.26 771.531 1816.75 777.014C2070.23 782.501 1682.67 1360.35 1682.67 1360.35C1682.68 1360.33 1704.15 1327.71 1704.15 1327.71" stroke="white" stroke-opacity="0.09" stroke-width="0.877694"/>
<path d="M1389.08 935.936C1389.08 935.936 1572.93 752.823 1826.65 760.381C2080.38 767.943 1697.35 1365.33 1697.35 1365.33C1697.36 1365.31 1718.57 1331.58 1718.57 1331.58" stroke="white" stroke-opacity="0.09" stroke-width="0.877694"/>
<path d="M1400.14 922.687C1400.14 922.687 1582.65 734.064 1836.62 743.693C2090.59 753.324 1712.07 1370.26 1712.07 1370.26C1712.08 1370.24 1733.04 1335.41 1733.04 1335.41" stroke="white" stroke-opacity="0.09" stroke-width="0.877694"/>
<path d="M1411.26 909.38C1411.26 909.38 1592.46 715.225 1846.69 726.925C2100.92 738.63 1726.88 1375.12 1726.88 1375.12C1726.89 1375.1 1747.6 1339.16 1747.6 1339.16" stroke="white" stroke-opacity="0.09" stroke-width="0.877694"/>
<path d="M1422.41 896C1422.41 896 1602.31 696.31 1856.83 710.085C2111.35 723.863 1741.76 1379.92 1741.76 1379.92C1741.77 1379.9 1762.22 1342.85 1762.22 1342.85" stroke="white" stroke-opacity="0.09" stroke-width="0.877694"/>
<path d="M1433.61 882.569C1433.61 882.569 1612.21 677.34 1867.02 693.202C2121.83 709.045 1756.66 1384.69 1756.66 1384.69C1756.67 1384.67 1776.88 1346.51 1776.88 1346.51" stroke="white" stroke-opacity="0.09" stroke-width="0.877694"/>
<path d="M1724.58 684.99C1724.58 684.99 1416.04 789.54 1331.05 1036.35C1246.06 1283.14 2171.6 1150.35 2171.6 1150.35L2119.47 1157.46" stroke="white" stroke-opacity="0.09" stroke-width="0.877694"/>
<path d="M1738.95 673.537C1738.95 673.537 1435.73 780.47 1348.91 1026.15C1262.09 1271.82 2168.94 1130.42 2168.94 1130.42L2117.86 1138.01" stroke="white" stroke-opacity="0.09" stroke-width="0.877694"/>
<path d="M1753.46 660.115C1753.46 660.115 1455.56 769.426 1366.92 1013.97C1278.28 1258.51 2166.41 1108.52 2166.41 1108.52L2116.4 1116.6" stroke="white" stroke-opacity="0.09" stroke-width="0.877694"/>
<path d="M1768.12 646.559C1768.12 646.559 1475.54 758.243 1385.07 1001.67C1294.6 1245.09 2164.03 1086.5 2164.03 1086.5L2115.08 1095.07" stroke="white" stroke-opacity="0.09" stroke-width="0.877694"/>
<path d="M1782.89 632.864C1782.89 632.864 1495.65 746.899 1403.36 989.201C1311.08 1231.48 2161.8 1064.34 2161.8 1064.34L2113.9 1073.39" stroke="white" stroke-opacity="0.09" stroke-width="0.877694"/>
<path d="M1797.79 619.108C1797.79 619.108 1515.88 735.506 1421.79 976.669C1327.7 1217.83 2159.7 1042.12 2159.7 1042.12L2112.87 1051.66" stroke="white" stroke-opacity="0.09" stroke-width="0.877694"/>
<path d="M1813.27 605.739C1813.27 605.739 1536.69 724.495 1440.81 964.516C1344.92 1204.54 2158.22 1020.29 2158.22 1020.29L2112.45 1030.32" stroke="white" stroke-opacity="0.09" stroke-width="0.877694"/>
<path d="M1828.96 592.419C1828.96 592.419 1557.72 713.528 1460.05 952.406C1362.37 1191.3 2156.95 998.539 2156.95 998.539L2112.23 1009.05" stroke="white" stroke-opacity="0.09" stroke-width="0.877694"/>
<path d="M1845.6 579.926C1845.6 579.926 1579.71 703.366 1480.24 941.133C1380.79 1178.88 2156.64 977.618 2156.64 977.618L2112.98 988.605" stroke="white" stroke-opacity="0.09" stroke-width="0.877694"/>
<path d="M1862.97 568.05C1862.97 568.05 1602.42 693.832 1501.19 930.453C1399.96 1167.07 2157.09 957.303 2157.09 957.303L2114.49 968.773" stroke="white" stroke-opacity="0.09" stroke-width="0.877694"/>
<path d="M1881.03 556.757C1881.03 556.757 1625.83 684.876 1522.84 920.349C1419.85 1155.82 2158.25 937.58 2158.25 937.58L2116.72 949.531" stroke="white" stroke-opacity="0.09" stroke-width="0.877694"/>
<path d="M1899.71 546.022C1899.71 546.022 1649.86 676.472 1545.12 910.795C1440.38 1145.13 2160.07 918.427 2160.07 918.427L2119.59 930.856" stroke="white" stroke-opacity="0.09" stroke-width="0.877694"/>
<path d="M1918.47 535.928C1918.47 535.928 1673.97 668.686 1567.5 901.891C1461.02 1135.08 2161.96 899.952 2161.96 899.952L2122.55 912.86" stroke="white" stroke-opacity="0.09" stroke-width="0.877694"/>
<path d="M1937.22 526.411C1937.22 526.411 1698.09 661.488 1589.9 893.539C1481.7 1125.59 2163.9 882.028 2163.9 882.028L2125.55 895.412" stroke="white" stroke-opacity="0.09" stroke-width="0.877694"/>
<path d="M1954.69 517.764C1954.69 517.764 1720.93 655.155 1611.03 886.049C1501.12 1116.94 2164.58 864.981 2164.58 864.981L2127.28 878.843" stroke="white" stroke-opacity="0.09" stroke-width="0.877694"/>
<path d="M1971.03 509.901C1971.03 509.901 1742.64 649.581 1631.05 879.334C1519.45 1109.09 2164.17 848.733 2164.17 848.733L2127.94 863.069" stroke="white" stroke-opacity="0.09" stroke-width="0.877694"/>
<path d="M1986.31 502.732C1986.31 502.732 1763.3 644.713 1650.04 873.306C1536.77 1101.9 2162.73 833.182 2162.73 833.182L2127.56 847.993" stroke="white" stroke-opacity="0.09" stroke-width="0.877694"/>
<path d="M2000.61 496.195C2000.61 496.195 1782.98 640.468 1668.06 867.916C1553.14 1095.36 2160.34 818.305 2160.34 818.305C2160.34 818.308 2126.23 833.59 2126.23 833.59" stroke="white" stroke-opacity="0.09" stroke-width="0.877694"/>
</g>
</svg>
