<svg width="839" height="332" viewBox="0 0 839 332" fill="none" xmlns="http://www.w3.org/2000/svg">
<mask id="mask0_586_17019" style="mask-type:alpha" maskUnits="userSpaceOnUse" x="0" y="0" width="839" height="332">
<path d="M839 5.51494C839 2.46912 836.529 0 833.48 0H5.51971C2.47125 0 0 2.46913 0 5.51495V326.485C0 329.531 2.47125 332 5.51971 332H833.48C836.529 332 839 329.531 839 326.485V5.51494Z" fill="#1C1C1C"/>
</mask>
<g mask="url(#mask0_586_17019)">
<path d="M675.409 363.195C675.409 363.195 421.12 165.375 70.8443 167.404C-279.459 169.422 250.842 809.659 250.842 809.659C250.831 809.637 221.452 773.498 221.452 773.498" stroke="#1C1C1C" stroke-opacity="0.07" stroke-width="0.877694"/>
<path d="M661.601 348.392C661.601 348.392 409.352 143.969 58.6114 148.458C-292.114 152.947 231.254 816.623 231.254 816.623C231.243 816.601 202.255 779.137 202.255 779.137" stroke="#1C1C1C" stroke-opacity="0.07" stroke-width="0.877694"/>
<path d="M647.419 333.122C647.419 333.122 397.187 122.073 45.9984 129.034C-305.186 135.999 211.292 823.091 211.292 823.091C211.281 823.069 182.684 784.279 182.684 784.279" stroke="#1C1C1C" stroke-opacity="0.07" stroke-width="0.877694"/>
<path d="M632.692 317.172C632.692 317.172 384.464 99.4962 32.8136 108.928C-318.845 118.364 190.773 828.879 190.773 828.879C190.762 828.856 162.553 788.74 162.553 788.74" stroke="#1C1C1C" stroke-opacity="0.07" stroke-width="0.877694"/>
<path d="M617.899 301.14C617.899 301.14 371.67 76.8553 19.5436 88.7555C-332.582 100.658 170.183 834.605 170.183 834.605C170.172 834.582 142.35 793.139 142.35 793.139" stroke="#1C1C1C" stroke-opacity="0.07" stroke-width="0.877694"/>
<path d="M603.022 285.023C603.022 285.023 358.77 54.1075 6.1501 68.4759C-346.48 82.8496 149.483 840.228 149.483 840.228C149.472 840.205 122.036 797.435 122.036 797.435" stroke="#1C1C1C" stroke-opacity="0.07" stroke-width="0.877694"/>
<path d="M588.106 268.816C588.106 268.816 345.819 31.2675 -7.33384 48.1099C-360.486 64.9543 128.707 845.772 128.707 845.772C128.696 845.749 101.644 801.651 101.644 801.651" stroke="#1C1C1C" stroke-opacity="0.07" stroke-width="0.877694"/>
<path d="M573.128 252.54C573.128 252.54 332.793 8.35529 -20.8773 27.685C-374.544 46.9932 107.883 851.263 107.883 851.263C107.872 851.239 81.2012 805.813 81.2012 805.813" stroke="#1C1C1C" stroke-opacity="0.07" stroke-width="0.877694"/>
<path d="M178.088 18.0271C178.088 18.0271 599.602 141.094 708.119 432.636C816.634 724.156 -454.084 568.695 -454.084 568.695L-382.495 577.011" stroke="#1C1C1C" stroke-opacity="0.07" stroke-width="0.877694"/>
<path d="M158.457 4.0123C158.457 4.0123 572.631 129.943 683.733 420.244C794.841 710.543 -450.043 544.828 -450.043 544.828L-379.918 553.725" stroke="#1C1C1C" stroke-opacity="0.07" stroke-width="0.877694"/>
<path d="M138.67 -12.3573C138.67 -12.3573 545.5 116.435 659.181 405.493C772.867 694.55 -446.151 518.601 -446.151 518.601L-377.491 528.078" stroke="#1C1C1C" stroke-opacity="0.07" stroke-width="0.877694"/>
<path d="M118.687 -28.8986C118.687 -28.8986 518.171 102.752 634.432 390.588C750.699 678.422 -442.458 492.227 -442.458 492.227L-375.263 502.285" stroke="#1C1C1C" stroke-opacity="0.07" stroke-width="0.877694"/>
<path d="M98.5371 -45.6041C98.5371 -45.6041 490.663 88.8829 609.496 375.496C728.326 662.086 -438.96 465.672 -438.96 465.672L-373.23 476.308" stroke="#1C1C1C" stroke-opacity="0.07" stroke-width="0.877694"/>
<path d="M78.2098 -62.3835C78.2098 -62.3835 462.984 74.9578 584.372 360.327C705.765 645.694 -435.657 439.044 -435.657 439.044L-371.391 450.26" stroke="#1C1C1C" stroke-opacity="0.07" stroke-width="0.877694"/>
<path d="M57.083 -78.7168C57.083 -78.7168 434.503 61.4763 558.437 345.601C682.376 629.723 -433.199 412.867 -433.199 412.867L-370.398 424.661" stroke="#1C1C1C" stroke-opacity="0.07" stroke-width="0.877694"/>
<path d="M35.6527 -94.9927C35.6527 -94.9927 405.714 48.0498 532.184 330.929C658.668 613.827 -431.029 386.769 -431.029 386.769L-369.693 399.142" stroke="#1C1C1C" stroke-opacity="0.07" stroke-width="0.877694"/>
<path d="M12.9062 -110.295C12.9062 -110.295 375.597 35.5743 504.611 317.248C633.62 598.901 -430.197 361.648 -430.197 361.648L-370.327 374.598" stroke="#1C1C1C" stroke-opacity="0.07" stroke-width="0.877694"/>
<path d="M-10.8537 -124.878C-10.8537 -124.878 344.472 23.8363 476 304.264C607.533 584.691 -430.412 337.231 -430.412 337.231L-372.007 350.76" stroke="#1C1C1C" stroke-opacity="0.07" stroke-width="0.877694"/>
<path d="M-35.5725 -138.774C-35.5725 -138.774 312.384 12.7826 446.414 291.964C580.449 571.144 -431.611 313.505 -431.611 313.505L-374.671 327.611" stroke="#1C1C1C" stroke-opacity="0.07" stroke-width="0.877694"/>
<path d="M-61.1621 -152.012C-61.1621 -152.012 279.421 2.38396 415.94 280.318C552.473 558.272 -433.731 290.447 -433.731 290.447L-378.254 305.128" stroke="#1C1C1C" stroke-opacity="0.07" stroke-width="0.877694"/>
<path d="M-86.8672 -164.491C-86.8672 -164.491 246.327 -7.27807 385.34 269.449C524.347 546.155 -435.953 268.186 -435.953 268.186L-381.942 283.445" stroke="#1C1C1C" stroke-opacity="0.07" stroke-width="0.877694"/>
<path d="M-112.596 -176.277C-112.596 -176.277 213.214 -16.2292 354.685 259.25C496.161 534.728 -438.25 246.582 -438.25 246.582L-385.706 262.415" stroke="#1C1C1C" stroke-opacity="0.07" stroke-width="0.877694"/>
<path d="M-136.567 -186.993C-136.567 -186.993 181.85 -24.1128 325.766 250.117C469.685 524.346 -438.824 226.052 -438.824 226.052L-387.746 242.462" stroke="#1C1C1C" stroke-opacity="0.07" stroke-width="0.877694"/>
<path d="M-159.006 -196.758C-159.006 -196.758 152.006 -31.0688 298.358 241.932C444.71 514.932 -437.923 206.485 -437.923 206.485L-388.313 223.468" stroke="#1C1C1C" stroke-opacity="0.07" stroke-width="0.877694"/>
<path d="M-180.014 -205.666C-180.014 -205.666 123.594 -37.1505 272.351 234.601C421.106 506.352 -435.613 187.773 -435.613 187.773L-387.469 205.331" stroke="#1C1C1C" stroke-opacity="0.07" stroke-width="0.877694"/>
<path d="M-199.693 -213.801C-199.693 -213.801 96.5038 -42.4616 247.652 228.06C398.799 498.581 -432 169.88 -432 169.88C-432.011 169.883 -385.323 188.013 -385.323 188.013" stroke="#1C1C1C" stroke-opacity="0.07" stroke-width="0.877694"/>
</g>
</svg>
