<svg width="1520" height="1094" viewBox="0 0 1520 1094" fill="none" xmlns="http://www.w3.org/2000/svg">
<mask id="mask0_586_10402" style="mask-type:alpha" maskUnits="userSpaceOnUse" x="0" y="0" width="1520" height="1094">
<rect width="1520" height="1094" rx="10" fill="#1C1C1C"/>
</mask>
<g mask="url(#mask0_586_10402)">
<path d="M672.827 1089.36C672.827 1089.36 434.133 926.347 112.727 927.66C-208.705 928.963 295.2 1456.25 295.2 1456.25C295.19 1456.23 267.255 1426.47 267.255 1426.47" stroke="white" stroke-opacity="0.1" stroke-width="0.877694"/>
<path d="M659.702 1077.37C659.702 1077.37 422.753 908.97 101.056 912.305C-220.627 915.64 277.439 1462.06 277.439 1462.06C277.429 1462.04 249.823 1431.2 249.823 1431.2" stroke="white" stroke-opacity="0.1" stroke-width="0.877694"/>
<path d="M646.227 1065.02C646.227 1065.02 410.999 891.214 89.0231 896.581C-232.949 901.951 259.327 1467.49 259.327 1467.49C259.317 1467.47 232.039 1435.54 232.039 1435.54" stroke="white" stroke-opacity="0.1" stroke-width="0.877694"/>
<path d="M632.238 1052.12C632.238 1052.12 398.714 872.91 76.4421 880.307C-245.837 887.707 240.685 1472.37 240.685 1472.37C240.674 1472.35 213.723 1439.34 213.723 1439.34" stroke="white" stroke-opacity="0.1" stroke-width="0.877694"/>
<path d="M618.19 1039.15C618.19 1039.15 386.362 854.542 63.7777 863.966C-258.805 873.392 221.978 1477.19 221.978 1477.19C221.967 1477.17 195.34 1443.08 195.34 1443.08" stroke="white" stroke-opacity="0.1" stroke-width="0.877694"/>
<path d="M604.066 1026.13C604.066 1026.13 373.91 836.108 50.9933 847.559C-271.933 859.015 203.168 1481.95 203.168 1481.95C203.157 1481.93 176.852 1446.75 176.852 1446.75" stroke="white" stroke-opacity="0.1" stroke-width="0.877694"/>
<path d="M589.9 1013.04C589.9 1013.04 361.401 817.602 38.111 831.084C-285.178 844.568 184.277 1486.65 184.277 1486.65C184.266 1486.63 158.281 1450.37 158.281 1450.37" stroke="white" stroke-opacity="0.1" stroke-width="0.877694"/>
<path d="M575.681 999.884C575.681 999.884 348.822 799.026 25.1695 814.55C-298.481 830.056 165.342 1491.31 165.342 1491.31C165.331 1491.29 139.663 1453.94 139.663 1453.94" stroke="white" stroke-opacity="0.1" stroke-width="0.877694"/>
<path d="M206.097 806.513C206.097 806.513 598.001 908.836 705.949 1150.39C813.895 1391.92 -361.703 1261.96 -361.703 1261.96L-295.485 1268.92" stroke="white" stroke-opacity="0.1" stroke-width="0.877694"/>
<path d="M187.839 795.313C187.839 795.313 572.985 899.968 683.259 1140.41C793.539 1380.85 -358.324 1242.46 -358.324 1242.46L-293.451 1249.9" stroke="white" stroke-opacity="0.1" stroke-width="0.877694"/>
<path d="M169.409 782.174C169.409 782.174 547.795 889.156 660.386 1128.49C772.983 1367.82 -355.112 1221.02 -355.112 1221.02L-291.585 1228.93" stroke="white" stroke-opacity="0.1" stroke-width="0.877694"/>
<path d="M150.795 768.906C150.795 768.906 522.417 878.211 637.327 1116.45C752.242 1354.69 -352.09 1199.48 -352.09 1199.48L-289.909 1207.87" stroke="white" stroke-opacity="0.1" stroke-width="0.877694"/>
<path d="M132.03 755.504C132.03 755.504 496.875 867.11 614.095 1104.25C731.31 1341.38 -349.249 1177.79 -349.249 1177.79L-288.414 1186.65" stroke="white" stroke-opacity="0.1" stroke-width="0.877694"/>
<path d="M113.102 742.041C113.102 742.041 471.177 855.96 590.688 1091.99C710.202 1328.01 -346.59 1156.04 -346.59 1156.04L-287.1 1165.38" stroke="white" stroke-opacity="0.1" stroke-width="0.877694"/>
<path d="M93.4447 728.956C93.4447 728.956 444.747 845.183 566.537 1080.09C688.333 1315 -344.706 1134.68 -344.706 1134.68L-286.563 1144.49" stroke="white" stroke-opacity="0.1" stroke-width="0.877694"/>
<path d="M73.509 715.917C73.509 715.917 418.033 834.447 542.093 1068.24C666.167 1302.04 -343.09 1113.39 -343.09 1113.39L-286.293 1123.67" stroke="white" stroke-opacity="0.1" stroke-width="0.877694"/>
<path d="M52.3767 703.696C52.3767 703.696 390.11 824.507 516.445 1057.21C642.776 1289.9 -342.695 1092.92 -342.695 1092.92L-287.245 1103.67" stroke="white" stroke-opacity="0.1" stroke-width="0.877694"/>
<path d="M30.3086 692.072C30.3086 692.072 361.255 815.176 489.836 1046.76C618.421 1278.34 -343.271 1073.04 -343.271 1073.04L-289.167 1084.26" stroke="white" stroke-opacity="0.1" stroke-width="0.877694"/>
<path d="M7.37216 681.017C7.37216 681.017 331.528 806.407 462.339 1036.86C593.155 1267.32 -344.744 1053.73 -344.744 1053.73L-291.987 1065.43" stroke="white" stroke-opacity="0.1" stroke-width="0.877694"/>
<path d="M-16.3482 670.503C-16.3482 670.503 301.011 798.175 434.039 1027.51C567.08 1256.85 -347.052 1034.98 -347.052 1034.98L-295.641 1047.14" stroke="white" stroke-opacity="0.1" stroke-width="0.877694"/>
<path d="M-40.1751 660.628C-40.1751 660.628 270.372 790.559 405.618 1018.8C540.858 1247.02 -349.46 1016.9 -349.46 1016.9L-299.395 1029.53" stroke="white" stroke-opacity="0.1" stroke-width="0.877694"/>
<path d="M-64.003 651.319C-64.003 651.319 239.736 783.519 377.164 1010.63C514.595 1237.74 -351.923 999.361 -351.923 999.361L-303.207 1012.46" stroke="white" stroke-opacity="0.1" stroke-width="0.877694"/>
<path d="M-86.1862 642.848C-86.1862 642.848 210.735 777.312 350.328 1003.29C489.922 1229.27 -352.78 982.67 -352.78 982.67L-305.412 996.236" stroke="white" stroke-opacity="0.1" stroke-width="0.877694"/>
<path d="M-106.937 635.152C-106.937 635.152 183.152 771.857 324.898 996.716C466.644 1221.58 -352.266 966.766 -352.266 966.766L-306.246 980.797" stroke="white" stroke-opacity="0.1" stroke-width="0.877694"/>
<path d="M-126.347 628.144C-126.347 628.144 156.911 767.1 300.778 990.825C444.643 1214.55 -350.438 951.555 -350.438 951.555L-305.767 966.051" stroke="white" stroke-opacity="0.1" stroke-width="0.877694"/>
<path d="M-144.509 621.746C-144.509 621.746 131.909 762.946 277.879 985.55C423.848 1208.15 -347.394 936.995 -347.394 936.995C-347.405 936.998 -304.072 951.955 -304.072 951.955" stroke="white" stroke-opacity="0.1" stroke-width="0.877694"/>
</g>
</svg>
