<svg width="1920" height="1580" viewBox="0 0 1920 1580" fill="none" xmlns="http://www.w3.org/2000/svg">
<mask id="mask0_638_907" style="mask-type:alpha" maskUnits="userSpaceOnUse" x="0" y="0" width="1920" height="1580">
<rect width="1920" height="1580" rx="10" fill="#1C1C1C"/>
</mask>
<g mask="url(#mask0_638_907)">
<path d="M562.874 1353.89C562.874 1353.89 374.953 1175.01 121.913 1176.45C-131.148 1177.88 265.572 1756.48 265.572 1756.48C265.564 1756.46 243.571 1723.8 243.571 1723.8" stroke="#1C1C1C" stroke-opacity="0.09" stroke-width="0.877694"/>
<path d="M552.541 1340.73C552.541 1340.73 365.993 1155.95 112.724 1159.61C-140.534 1163.27 251.589 1762.86 251.589 1762.86C251.581 1762.84 229.847 1729 229.847 1729" stroke="#1C1C1C" stroke-opacity="0.09" stroke-width="0.877694"/>
<path d="M541.932 1327.18C541.932 1327.18 356.739 1136.46 103.251 1142.35C-150.235 1148.24 237.329 1768.81 237.329 1768.81C237.321 1768.79 215.846 1733.76 215.846 1733.76" stroke="#1C1C1C" stroke-opacity="0.09" stroke-width="0.877694"/>
<path d="M530.921 1313.02C530.921 1313.02 347.069 1116.37 93.3479 1124.48C-160.379 1132.6 222.655 1774.16 222.655 1774.16C222.646 1774.14 201.428 1737.92 201.428 1737.92" stroke="#1C1C1C" stroke-opacity="0.09" stroke-width="0.877694"/>
<path d="M519.862 1298.79C519.862 1298.79 337.346 1096.22 83.3784 1106.56C-170.588 1116.91 207.928 1779.46 207.928 1779.46C207.919 1779.44 186.956 1742.03 186.956 1742.03" stroke="#1C1C1C" stroke-opacity="0.09" stroke-width="0.877694"/>
<path d="M508.741 1284.5C508.741 1284.5 327.541 1075.99 73.3118 1088.55C-180.925 1101.12 193.117 1784.68 193.117 1784.68C193.109 1784.66 172.399 1746.06 172.399 1746.06" stroke="#1C1C1C" stroke-opacity="0.09" stroke-width="0.877694"/>
<path d="M497.586 1270.13C497.586 1270.13 317.691 1055.67 63.1679 1070.47C-191.355 1085.26 178.243 1789.83 178.243 1789.83C178.234 1789.81 157.776 1750.02 157.776 1750.02" stroke="#1C1C1C" stroke-opacity="0.09" stroke-width="0.877694"/>
<path d="M486.392 1255.71C486.392 1255.71 307.788 1035.3 52.979 1052.34C-201.828 1069.35 163.336 1794.95 163.336 1794.95C163.327 1794.93 143.119 1753.95 143.119 1753.95" stroke="#1C1C1C" stroke-opacity="0.09" stroke-width="0.877694"/>
<path d="M195.423 1043.52C195.423 1043.52 503.965 1155.8 588.952 1420.86C673.937 1685.9 -251.6 1543.29 -251.6 1543.29L-199.468 1550.92" stroke="#1C1C1C" stroke-opacity="0.09" stroke-width="0.877694"/>
<path d="M181.05 1031.22C181.05 1031.22 484.272 1146.06 571.09 1409.9C657.912 1673.74 -248.938 1521.88 -248.938 1521.88L-197.864 1530.04" stroke="#1C1C1C" stroke-opacity="0.09" stroke-width="0.877694"/>
<path d="M166.536 1016.8C166.536 1016.8 464.435 1134.2 553.078 1396.82C641.724 1659.45 -246.414 1498.36 -246.414 1498.36L-196.4 1507.04" stroke="#1C1C1C" stroke-opacity="0.09" stroke-width="0.877694"/>
<path d="M151.883 1002.25C151.883 1002.25 444.458 1122.19 534.925 1383.61C625.397 1645.03 -244.034 1474.72 -244.034 1474.72L-195.079 1483.92" stroke="#1C1C1C" stroke-opacity="0.09" stroke-width="0.877694"/>
<path d="M137.11 987.537C137.11 987.537 424.349 1110 516.635 1370.22C608.918 1630.42 -241.796 1450.92 -241.796 1450.92L-193.901 1460.64" stroke="#1C1C1C" stroke-opacity="0.09" stroke-width="0.877694"/>
<path d="M122.209 972.765C122.209 972.765 404.118 1097.77 498.208 1356.77C592.301 1615.76 -239.702 1427.06 -239.702 1427.06L-192.866 1437.3" stroke="#1C1C1C" stroke-opacity="0.09" stroke-width="0.877694"/>
<path d="M106.733 958.406C106.733 958.406 383.309 1085.94 479.194 1343.71C575.082 1601.48 -238.219 1403.62 -238.219 1403.62L-192.444 1414.38" stroke="#1C1C1C" stroke-opacity="0.09" stroke-width="0.877694"/>
<path d="M91.0363 944.102C91.0363 944.102 362.277 1074.17 459.948 1330.71C557.63 1587.27 -236.948 1380.25 -236.948 1380.25L-192.232 1391.54" stroke="#1C1C1C" stroke-opacity="0.09" stroke-width="0.877694"/>
<path d="M74.399 930.685C74.399 930.685 340.293 1063.25 439.756 1318.6C539.215 1573.93 -236.637 1357.78 -236.637 1357.78L-192.982 1369.58" stroke="#1C1C1C" stroke-opacity="0.09" stroke-width="0.877694"/>
<path d="M57.0262 917.93C57.0262 917.93 317.577 1053.01 418.808 1307.13C520.041 1561.25 -237.09 1335.97 -237.09 1335.97L-194.494 1348.29" stroke="#1C1C1C" stroke-opacity="0.09" stroke-width="0.877694"/>
<path d="M38.9674 905.803C38.9674 905.803 294.172 1043.4 397.159 1296.28C500.149 1549.16 -238.25 1314.79 -238.25 1314.79L-196.715 1327.62" stroke="#1C1C1C" stroke-opacity="0.09" stroke-width="0.877694"/>
<path d="M20.2922 894.273C20.2922 894.273 270.146 1034.37 374.878 1286.02C479.619 1537.69 -240.068 1294.22 -240.068 1294.22L-199.592 1307.56" stroke="#1C1C1C" stroke-opacity="0.09" stroke-width="0.877694"/>
<path d="M1.53449 883.433C1.53449 883.433 246.026 1026.01 352.503 1276.46C458.977 1526.89 -241.962 1274.37 -241.962 1274.37L-202.547 1288.24" stroke="#1C1C1C" stroke-opacity="0.09" stroke-width="0.877694"/>
<path d="M-17.2245 873.213C-17.2245 873.213 221.906 1018.28 330.102 1267.49C438.3 1516.7 -243.901 1255.13 -243.901 1255.13L-205.547 1269.5" stroke="#1C1C1C" stroke-opacity="0.09" stroke-width="0.877694"/>
<path d="M-34.6888 863.927C-34.6888 863.927 199.074 1011.48 308.975 1259.44C418.876 1507.41 -244.576 1236.82 -244.576 1236.82L-207.283 1251.71" stroke="#1C1C1C" stroke-opacity="0.09" stroke-width="0.877694"/>
<path d="M-51.0255 855.482C-51.0255 855.482 177.359 1005.49 288.955 1252.23C400.55 1498.97 -244.17 1219.37 -244.17 1219.37L-207.94 1234.76" stroke="#1C1C1C" stroke-opacity="0.09" stroke-width="0.877694"/>
<path d="M-66.3045 847.784C-66.3045 847.784 156.702 1000.26 269.966 1245.76C383.23 1491.26 -242.729 1202.67 -242.729 1202.67L-207.56 1218.58" stroke="#1C1C1C" stroke-opacity="0.09" stroke-width="0.877694"/>
<path d="M-80.606 840.763C-80.606 840.763 137.015 995.705 251.936 1239.97C366.856 1484.24 -240.336 1186.69 -240.336 1186.69C-240.344 1186.69 -206.228 1203.11 -206.228 1203.11" stroke="#1C1C1C" stroke-opacity="0.09" stroke-width="0.877694"/>
</g>
</svg>
