<svg width="839" height="348" viewBox="0 0 839 348" fill="none" xmlns="http://www.w3.org/2000/svg">
<mask id="mask0_586_13224" style="mask-type:alpha" maskUnits="userSpaceOnUse" x="0" y="0" width="839" height="348">
<path d="M0 5.78072C0 2.58812 2.47127 0 5.51974 0H833.48C836.529 0 839 2.58812 839 5.78073V342.219C839 345.412 836.529 348 833.48 348H5.51972C2.47125 348 0 345.412 0 342.219V5.78072Z" fill="#1C1C1C"/>
</mask>
<g mask="url(#mask0_586_13224)">
<path d="M163.589 380.696C163.589 380.696 417.878 173.342 768.153 175.468C1118.46 177.584 588.156 848.675 588.156 848.675C588.166 848.652 617.546 810.772 617.546 810.772" stroke="#1C1C1C" stroke-opacity="0.07" stroke-width="0.877694"/>
<path d="M177.394 365.183C177.394 365.183 429.644 150.907 780.384 155.613C1131.11 160.318 607.742 855.979 607.742 855.979C607.752 855.956 636.74 816.686 636.74 816.686" stroke="#1C1C1C" stroke-opacity="0.07" stroke-width="0.877694"/>
<path d="M191.579 349.173C191.579 349.173 441.811 127.953 792.999 135.25C1144.18 142.55 627.706 862.756 627.706 862.756C627.716 862.733 656.314 822.073 656.314 822.073" stroke="#1C1C1C" stroke-opacity="0.07" stroke-width="0.877694"/>
<path d="M206.305 332.458C206.305 332.458 454.533 104.291 806.184 114.178C1157.84 124.069 648.225 868.825 648.225 868.825C648.236 868.801 676.444 826.752 676.444 826.752" stroke="#1C1C1C" stroke-opacity="0.07" stroke-width="0.877694"/>
<path d="M221.098 315.648C221.098 315.648 467.328 80.5549 819.454 93.0286C1171.58 105.504 668.815 874.822 668.815 874.822C668.826 874.798 696.647 831.358 696.647 831.358" stroke="#1C1C1C" stroke-opacity="0.07" stroke-width="0.877694"/>
<path d="M235.974 298.756C235.974 298.756 480.225 56.712 832.846 71.7728C1185.48 86.8392 689.512 880.718 689.512 880.718C689.523 880.694 716.959 835.863 716.959 835.863" stroke="#1C1C1C" stroke-opacity="0.07" stroke-width="0.877694"/>
<path d="M250.891 281.768C250.891 281.768 493.179 32.7705 846.331 50.4246C1199.48 68.0809 710.291 886.528 710.291 886.528C710.302 886.504 737.354 840.281 737.354 840.281" stroke="#1C1C1C" stroke-opacity="0.07" stroke-width="0.877694"/>
<path d="M265.869 264.71C265.869 264.71 506.205 8.75726 859.875 29.0186C1213.54 49.2572 731.114 892.287 731.114 892.287C731.126 892.262 757.796 844.647 757.796 844.647" stroke="#1C1C1C" stroke-opacity="0.07" stroke-width="0.877694"/>
<path d="M660.91 18.8965C660.91 18.8965 239.395 147.894 130.878 453.487C22.3639 759.056 1293.08 596.103 1293.08 596.103L1221.49 604.82" stroke="#1C1C1C" stroke-opacity="0.07" stroke-width="0.877694"/>
<path d="M680.539 4.20491C680.539 4.20491 266.365 136.205 155.263 440.496C44.1545 744.786 1289.04 571.084 1289.04 571.084L1218.91 580.41" stroke="#1C1C1C" stroke-opacity="0.07" stroke-width="0.877694"/>
<path d="M700.328 -12.9559C700.328 -12.9559 293.498 122.043 179.817 425.032C66.1311 728.02 1285.15 543.591 1285.15 543.591L1216.49 553.525" stroke="#1C1C1C" stroke-opacity="0.07" stroke-width="0.877694"/>
<path d="M720.31 -30.2918C720.31 -30.2918 320.826 107.704 204.565 409.411C88.2989 711.117 1281.46 515.948 1281.46 515.948L1214.26 526.491" stroke="#1C1C1C" stroke-opacity="0.07" stroke-width="0.877694"/>
<path d="M740.458 -47.8025C740.458 -47.8025 348.333 93.1658 229.499 393.591C110.67 693.994 1277.96 488.113 1277.96 488.113L1212.23 499.262" stroke="#1C1C1C" stroke-opacity="0.07" stroke-width="0.877694"/>
<path d="M760.788 -65.3915C760.788 -65.3915 376.014 78.5687 254.626 377.69C133.232 676.81 1274.65 460.201 1274.65 460.201L1210.39 471.958" stroke="#1C1C1C" stroke-opacity="0.07" stroke-width="0.877694"/>
<path d="M781.913 -82.5111C781.913 -82.5111 404.493 64.4384 280.559 362.255C156.62 660.071 1272.19 432.764 1272.19 432.764L1209.39 445.126" stroke="#1C1C1C" stroke-opacity="0.07" stroke-width="0.877694"/>
<path d="M803.345 -99.5717C803.345 -99.5717 433.283 50.3646 306.814 346.876C180.33 643.408 1270.03 405.408 1270.03 405.408L1208.69 418.377" stroke="#1C1C1C" stroke-opacity="0.07" stroke-width="0.877694"/>
<path d="M826.091 -115.612C826.091 -115.612 463.401 37.287 334.387 332.536C205.378 627.761 1269.19 379.075 1269.19 379.075L1209.32 392.65" stroke="#1C1C1C" stroke-opacity="0.07" stroke-width="0.877694"/>
<path d="M849.851 -130.898C849.851 -130.898 494.526 24.9833 362.998 318.926C231.465 612.867 1269.41 353.481 1269.41 353.481L1211 367.662" stroke="#1C1C1C" stroke-opacity="0.07" stroke-width="0.877694"/>
<path d="M874.57 -145.464C874.57 -145.464 526.614 13.3961 392.583 306.032C258.549 598.666 1270.61 328.611 1270.61 328.611L1213.67 343.397" stroke="#1C1C1C" stroke-opacity="0.07" stroke-width="0.877694"/>
<path d="M900.158 -159.34C900.158 -159.34 559.575 2.49628 423.055 293.825C286.522 585.174 1272.73 304.442 1272.73 304.442L1217.25 319.831" stroke="#1C1C1C" stroke-opacity="0.07" stroke-width="0.877694"/>
<path d="M925.865 -172.42C925.865 -172.42 592.671 -7.6304 453.658 282.433C314.65 572.474 1274.95 281.109 1274.95 281.109L1220.94 297.103" stroke="#1C1C1C" stroke-opacity="0.07" stroke-width="0.877694"/>
<path d="M951.594 -184.772C951.594 -184.772 625.784 -17.0115 484.312 271.744C342.836 560.497 1277.25 258.465 1277.25 258.465L1224.7 275.062" stroke="#1C1C1C" stroke-opacity="0.07" stroke-width="0.877694"/>
<path d="M975.565 -196.005C975.565 -196.005 657.148 -25.2751 513.231 262.17C369.313 549.616 1277.82 236.946 1277.82 236.946L1226.74 254.147" stroke="#1C1C1C" stroke-opacity="0.07" stroke-width="0.877694"/>
<path d="M998.003 -206.242C998.003 -206.242 686.992 -32.5675 540.64 253.59C394.288 539.747 1276.92 216.435 1276.92 216.435L1227.31 234.236" stroke="#1C1C1C" stroke-opacity="0.07" stroke-width="0.877694"/>
<path d="M1019.01 -215.582C1019.01 -215.582 715.401 -38.9448 566.645 245.903C417.889 530.751 1274.61 196.818 1274.61 196.818L1226.46 215.223" stroke="#1C1C1C" stroke-opacity="0.07" stroke-width="0.877694"/>
<path d="M1038.69 -224.105C1038.69 -224.105 742.494 -44.5085 591.346 239.05C440.199 522.609 1271 178.066 1271 178.066C1271.01 178.07 1224.32 197.073 1224.32 197.073" stroke="#1C1C1C" stroke-opacity="0.07" stroke-width="0.877694"/>
</g>
</svg>
