<svg width="361" height="168" viewBox="0 0 361 168" fill="none" xmlns="http://www.w3.org/2000/svg">
<mask id="mask0_586_3418" style="mask-type:alpha" maskUnits="userSpaceOnUse" x="0" y="0" width="361" height="168">
<path d="M0 2.79069C0 1.24943 1.06332 0 2.375 0H358.625C359.937 0 361 1.24944 361 2.7907V165.209C361 166.751 359.937 168 358.625 168H2.37499C1.06331 168 0 166.751 0 165.209V2.79069Z" fill="#1C1C1C"/>
</mask>
<g mask="url(#mask0_586_3418)">
<path d="M28.1383 296.436C28.1383 296.436 224.411 141.516 494.77 143.105C765.151 144.686 355.84 646.076 355.84 646.076C355.848 646.059 378.524 617.757 378.524 617.757" stroke="#1C1C1C" stroke-opacity="0.05" stroke-width="0.877694"/>
<path d="M38.7948 284.841C38.7948 284.841 233.493 124.75 504.212 128.266C774.918 131.781 370.958 651.528 370.958 651.528C370.966 651.511 393.34 622.171 393.34 622.171" stroke="#1C1C1C" stroke-opacity="0.05" stroke-width="0.877694"/>
<path d="M49.7415 272.885C49.7415 272.885 242.883 107.606 513.947 113.057C785.008 118.511 386.365 656.596 386.365 656.596C386.373 656.579 408.446 626.201 408.446 626.201" stroke="#1C1C1C" stroke-opacity="0.05" stroke-width="0.877694"/>
<path d="M61.1101 260.393C61.1101 260.393 252.704 89.9239 524.126 97.3102C795.553 104.7 402.205 661.127 402.205 661.127C402.214 661.11 423.986 629.693 423.986 629.693" stroke="#1C1C1C" stroke-opacity="0.05" stroke-width="0.877694"/>
<path d="M72.5266 247.836C72.5266 247.836 262.578 72.1913 534.367 81.5107C806.154 90.8318 418.096 665.609 418.096 665.609C418.104 665.592 439.579 633.136 439.579 633.136" stroke="#1C1C1C" stroke-opacity="0.05" stroke-width="0.877694"/>
<path d="M84.0094 235.215C84.0094 235.215 272.535 54.378 544.704 65.6304C816.881 76.8869 434.073 670.015 434.073 670.015C434.081 669.997 455.258 636.502 455.258 636.502" stroke="#1C1C1C" stroke-opacity="0.05" stroke-width="0.877694"/>
<path d="M95.5239 222.523C95.5239 222.523 282.533 36.4905 555.113 49.6803C827.693 62.8717 450.11 674.355 450.11 674.355C450.119 674.337 470.999 639.803 470.999 639.803" stroke="#1C1C1C" stroke-opacity="0.05" stroke-width="0.877694"/>
<path d="M107.083 209.778C107.083 209.778 292.585 18.5486 565.565 33.6864C838.542 48.8072 466.181 678.657 466.181 678.657C466.19 678.638 486.776 643.064 486.776 643.064" stroke="#1C1C1C" stroke-opacity="0.05" stroke-width="0.877694"/>
<path d="M411.996 26.1221C411.996 26.1221 86.6502 122.5 2.89146 350.816C-80.8652 579.115 899.936 457.368 899.936 457.368L844.681 463.881" stroke="#1C1C1C" stroke-opacity="0.05" stroke-width="0.877694"/>
<path d="M427.146 15.1472C427.146 15.1472 107.466 113.768 21.7123 341.112C-64.0463 568.454 896.816 438.677 896.816 438.677L842.69 445.645" stroke="#1C1C1C" stroke-opacity="0.05" stroke-width="0.877694"/>
<path d="M442.42 2.32531C442.42 2.32531 128.408 103.187 40.6642 329.558C-47.0843 555.928 893.813 418.136 893.813 418.136L840.818 425.558" stroke="#1C1C1C" stroke-opacity="0.05" stroke-width="0.877694"/>
<path d="M457.843 -10.6253C457.843 -10.6253 149.502 92.4747 59.7662 317.888C-29.9739 543.301 890.963 397.485 890.963 397.485L839.098 405.362" stroke="#1C1C1C" stroke-opacity="0.05" stroke-width="0.877694"/>
<path d="M473.396 -23.7087C473.396 -23.7087 170.734 81.6125 79.013 306.068C-12.7053 530.507 888.263 376.688 888.263 376.688L837.529 385.018" stroke="#1C1C1C" stroke-opacity="0.05" stroke-width="0.877694"/>
<path d="M489.086 -36.8503C489.086 -36.8503 192.099 70.7061 98.4058 294.188C4.70854 517.668 885.714 355.834 885.714 355.834L836.11 364.618" stroke="#1C1C1C" stroke-opacity="0.05" stroke-width="0.877694"/>
<path d="M505.392 -49.6398C505.392 -49.6398 214.081 60.15 118.422 282.657C22.7604 505.163 883.815 335.336 883.815 335.336L835.342 344.572" stroke="#1C1C1C" stroke-opacity="0.05" stroke-width="0.877694"/>
<path d="M521.933 -62.3868C521.933 -62.3868 236.301 49.6346 138.686 271.166C41.0596 492.713 882.141 314.897 882.141 314.897L834.799 324.587" stroke="#1C1C1C" stroke-opacity="0.05" stroke-width="0.877694"/>
<path d="M539.489 -74.3711C539.489 -74.3711 259.546 39.8639 159.967 260.452C60.3915 481.023 881.497 295.223 881.497 295.223L835.287 305.365" stroke="#1C1C1C" stroke-opacity="0.05" stroke-width="0.877694"/>
<path d="M557.83 -85.7903C557.83 -85.7903 283.572 30.6725 182.053 250.285C80.529 469.896 881.665 276.102 881.665 276.102L836.585 286.697" stroke="#1C1C1C" stroke-opacity="0.05" stroke-width="0.877694"/>
<path d="M576.91 -96.6722C576.91 -96.6722 308.341 22.0165 204.889 240.652C101.435 459.287 882.592 257.522 882.592 257.522L838.643 268.569" stroke="#1C1C1C" stroke-opacity="0.05" stroke-width="0.877694"/>
<path d="M596.658 -107.042C596.658 -107.042 333.78 13.8706 228.407 231.53C123.024 449.204 884.224 239.462 884.224 239.462L841.405 250.959" stroke="#1C1C1C" stroke-opacity="0.05" stroke-width="0.877694"/>
<path d="M616.501 -116.813C616.501 -116.813 359.325 6.30542 252.028 223.019C144.736 439.717 885.942 222.03 885.942 222.03L844.254 233.98" stroke="#1C1C1C" stroke-opacity="0.05" stroke-width="0.877694"/>
<path d="M636.359 -126.041C636.359 -126.041 384.884 -0.702815 275.689 215.034C166.491 430.769 887.715 205.113 887.715 205.113L847.159 217.513" stroke="#1C1C1C" stroke-opacity="0.05" stroke-width="0.877694"/>
<path d="M654.86 -134.437C654.86 -134.437 409.09 -6.88036 298.008 207.878C186.925 422.636 888.156 189.032 888.156 189.032L848.732 201.883" stroke="#1C1C1C" stroke-opacity="0.05" stroke-width="0.877694"/>
<path d="M672.18 -142.081C672.18 -142.081 432.127 -12.3247 319.165 201.471C206.204 415.267 887.463 173.711 887.463 173.711L849.171 187.012" stroke="#1C1C1C" stroke-opacity="0.05" stroke-width="0.877694"/>
<path d="M688.394 -149.059C688.394 -149.059 454.055 -17.0892 339.237 195.728C224.42 408.545 885.678 159.056 885.678 159.056L848.518 172.806" stroke="#1C1C1C" stroke-opacity="0.05" stroke-width="0.877694"/>
<path d="M703.585 -155.431C703.585 -155.431 474.966 -21.2493 358.303 190.605C241.64 402.459 882.891 145.042 882.891 145.042C882.899 145.045 846.863 159.243 846.863 159.243" stroke="#1C1C1C" stroke-opacity="0.05" stroke-width="0.877694"/>
</g>
</svg>
