<svg xmlns="http://www.w3.org/2000/svg" width="66" height="63" viewBox="0 0 66 63">
    <g fill="none" fill-rule="nonzero">
        <path fill="#FED200" d="M57.03 17.194c11.497 6.406 11.497 22.612 0 29.018L33.154 59.595C18.868 68.206.942 57.69.942 40.461V22.945C.942 5.715 18.868-4.8 33.135 3.8L57.03 17.194z"/>
        <path fill="#000" d="M56.693 17.794L32.798 4.399C19.086-3.865 1.63 6.114 1.63 22.945v17.516c0 16.83 17.456 26.81 31.168 18.546l23.895-13.395c11.028-6.144 11.028-21.674 0-27.818z"/>
        <path fill="#FFF" d="M49.809 24.893a1.732 1.732 0 0 0-2.247.945l-3.37 8.266-3.412-8.272a1.733 1.733 0 0 0-2.25-.936 1.704 1.704 0 0 0-.946 2.229l4.755 11.527-1.863 4.57c-.357.876.071 1.872.955 2.226.212.084.43.124.646.124.683 0 1.33-.404 1.601-1.07l7.086-17.384a1.704 1.704 0 0 0-.955-2.225M35.709 39.268h-7.382a1.747 1.747 0 0 1-1.545-.927 1.73 1.73 0 0 1 .103-1.792l5.277-7.674h-3.686a1.743 1.743 0 0 1-1.747-1.738c0-.96.783-1.738 1.747-1.738h6.997c.648 0 1.243.357 1.545.927a1.73 1.73 0 0 1-.103 1.792l-5.277 7.674h4.07c.965 0 1.747.778 1.747 1.738s-.782 1.738-1.746 1.738M22.742 38.638c-1.06 0-1.92-.752-1.92-1.68V26.448c0-.927.86-1.679 1.92-1.679s1.919.752 1.919 1.679v10.512c0 .927-.86 1.679-1.92 1.679"/>
        <path fill="#FED200" d="M20.854 20.414c-.252-1.51 1.054-2.797 2.587-2.55.928.15 1.676.888 1.828 1.802.251 1.51-1.055 2.798-2.587 2.55a2.222 2.222 0 0 1-1.828-1.802"/>
        <path fill="#FFF" d="M17.676 24.742h-3.968V23.04c0-.942.93-1.753 1.956-1.753h1.796c1.03 0 1.866-.78 1.866-1.727 0-.947-.836-1.727-1.866-1.727h-1.796c-3.085 0-5.717 2.374-5.717 5.207v13.882c0 .947.85 1.715 1.88 1.715 1.031 0 1.88-.768 1.88-1.715v-8.727h3.97c1.03 0 1.866-.78 1.866-1.727 0-.947-.836-1.727-1.867-1.727"/>
    </g>
</svg>