<svg width="30" height="30" viewBox="0 0 30 30" fill="none" xmlns="http://www.w3.org/2000/svg">
<path d="M14.59 25.9825C14.7119 26.0621 14.8544 26.1045 15 26.1045C15.1456 26.1045 15.2881 26.0621 15.41 25.9825L27.015 18.405C27.154 18.314 27.2589 18.1795 27.3132 18.0225C27.3675 17.8655 27.3681 17.6949 27.315 17.5375L22.8562 4.2625C22.8064 4.11327 22.7109 3.98349 22.5833 3.89151C22.4556 3.79954 22.3023 3.75003 22.145 3.75H7.77624C7.61839 3.74994 7.46454 3.79969 7.33662 3.89216C7.20869 3.98463 7.11319 4.1151 7.06374 4.265L2.68124 17.54C2.62945 17.6969 2.63091 17.8665 2.68538 18.0224C2.73985 18.1784 2.84429 18.312 2.98249 18.4025L14.59 25.9825Z" stroke="#1351D8" stroke-width="1.8" stroke-linecap="round" stroke-linejoin="round"/>
<path d="M18.125 7.5H12.5L11.875 13.75C12.2878 13.0351 12.9249 12.4764 13.6875 12.1605C14.4502 11.8445 15.2958 11.7891 16.0932 12.0028C16.8905 12.2164 17.5951 12.6872 18.0977 13.3421C18.6002 13.9971 18.8726 14.7995 18.8726 15.625C18.8726 16.4505 18.6002 17.2529 18.0977 17.9079C17.5951 18.5628 16.8905 19.0336 16.0932 19.2472C15.2958 19.4609 14.4502 19.4055 13.6875 19.0895C12.9249 18.7736 12.2878 18.2149 11.875 17.5" stroke="#1351D8" stroke-width="1.8" stroke-linecap="round" stroke-linejoin="round"/>
</svg>
