<svg width="30" height="30" viewBox="0 0 30 30" fill="none" xmlns="http://www.w3.org/2000/svg">
<path d="M8.75001 17.5C8.20437 17.5008 7.66548 17.6207 7.17094 17.8512C6.67641 18.0818 6.23815 18.4175 5.88676 18.835C5.53536 19.2524 5.27929 19.7415 5.13643 20.2681C4.99356 20.7947 4.96733 21.3461 5.05958 21.8839C5.15182 22.4217 5.36032 22.9329 5.67051 23.3818C5.9807 23.8307 6.38512 24.2065 6.85554 24.483C7.32596 24.7594 7.85104 24.9299 8.39415 24.9825C8.93725 25.0351 9.48529 24.9685 10 24.7875M5.33001 19.5062C4.58197 19.1461 3.93537 18.6054 3.44858 17.9328C2.96179 17.2603 2.65012 16.4771 2.54171 15.654C2.4333 14.8309 2.53156 13.9938 2.82762 13.2181C3.12368 12.4425 3.60822 11.7528 4.23751 11.2112M4.27501 11.11C3.86507 10.4965 3.68539 9.75784 3.76779 9.02464C3.85019 8.29145 4.18935 7.61105 4.72523 7.10391C5.26112 6.59677 5.95915 6.29559 6.69577 6.25369C7.43239 6.21179 8.16008 6.43187 8.75001 6.87498M9.04751 6.95623C8.84811 6.53253 8.74647 6.06944 8.75011 5.60118C8.75375 5.13292 8.86258 4.67147 9.06856 4.25093C9.27453 3.83039 9.57238 3.46151 9.9401 3.17157C10.3078 2.88163 10.736 2.67803 11.193 2.57583C11.65 2.47362 12.1241 2.47543 12.5803 2.58111C13.0365 2.68679 13.4631 2.89364 13.8286 3.18637C14.1941 3.47911 14.4891 3.85024 14.6919 4.27234C14.8946 4.69443 14.9999 5.1567 15 5.62498M15 5.62498V25M15 5.62498C15.0001 5.1567 15.1054 4.69443 15.3082 4.27234C15.5109 3.85024 15.806 3.47911 16.1715 3.18637C16.537 2.89364 16.9636 2.68679 17.4198 2.58111C17.876 2.47543 18.3501 2.47362 18.8071 2.57583C19.264 2.67803 19.6922 2.88163 20.0599 3.17157C20.4276 3.46151 20.7255 3.83039 20.9315 4.25093C21.1374 4.67147 21.2463 5.13292 21.2499 5.60118C21.2536 6.06944 21.1519 6.53253 20.9525 6.95623M15 25C15 25.663 14.7366 26.2989 14.2678 26.7677C13.7989 27.2366 13.1631 27.5 12.5 27.5C11.837 27.5 11.2011 27.2366 10.7322 26.7677C10.2634 26.2989 10 25.663 10 25M15 25C15 25.663 15.2634 26.2989 15.7322 26.7677C16.2011 27.2366 16.837 27.5 17.5 27.5M15 8.74998C15 9.74454 15.3951 10.6984 16.0984 11.4016C16.8016 12.1049 17.7555 12.5 18.75 12.5M25.7625 11.2112C26.3083 11.6801 26.7461 12.2614 27.046 12.9154C27.3459 13.5694 27.5008 14.2805 27.5 15C27.5 15.8787 27.2738 16.705 26.875 17.4225M25.725 11.11C26.135 10.4965 26.3146 9.75784 26.2322 9.02464C26.1498 8.29145 25.8107 7.61105 25.2748 7.10391C24.7389 6.59677 24.0409 6.29559 23.3043 6.25369C22.5676 6.21179 21.8399 6.43187 21.25 6.87498M23.3338 20L21.25 23.75H26.25L24.1663 27.5" stroke="#1351D8" stroke-width="1.8" stroke-linecap="round" stroke-linejoin="round"/>
</svg>
