<svg width="30" height="30" viewBox="0 0 30 30" fill="none" xmlns="http://www.w3.org/2000/svg">
<path d="M17.5 17.5001V7.50006M17.5 17.5001L25.1275 21.8588C25.2415 21.924 25.3706 21.9582 25.5019 21.9579C25.6333 21.9575 25.7622 21.9227 25.8758 21.8569C25.9895 21.7911 26.0839 21.6966 26.1495 21.5829C26.2152 21.4691 26.2498 21.3401 26.25 21.2088V3.79131C26.2501 3.65988 26.2156 3.53074 26.15 3.41683C26.0844 3.30292 25.9901 3.20825 25.8764 3.14229C25.7627 3.07634 25.6337 3.04141 25.5022 3.04102C25.3708 3.04063 25.2416 3.07478 25.1275 3.14006L17.5 7.50006M17.5 17.5001H8.75M17.5 7.50006H8.75C7.42392 7.50006 6.15215 8.02684 5.21447 8.96453C4.27678 9.90221 3.75 11.174 3.75 12.5001C3.75 13.8261 4.27678 15.0979 5.21447 16.0356C6.15215 16.9733 7.42392 17.5001 8.75 17.5001M8.75 17.5001L9.69625 24.1251C9.79498 24.7696 10.1441 25.3492 10.6677 25.7378C11.1914 26.1264 11.8472 26.2927 12.4927 26.2004C13.1383 26.1082 13.7213 25.765 14.1152 25.2453C14.5091 24.7256 14.6819 24.0715 14.5963 23.4251L13.75 17.5001H8.75Z" stroke="#1351D8" stroke-width="1.8"/>
</svg>
