<svg xmlns="http://www.w3.org/2000/svg" viewBox="0 0 24 24" id="instagram"><defs><radialGradient id="a" cx="12" cy="12" r="35.57" fx="-.863" fy="29.631" gradientUnits="userSpaceOnUse"><stop offset=".17" stop-color="#ffc900"></stop><stop offset=".2" stop-color="#ffad15"></stop><stop offset=".3" stop-color="#ff5658"></stop><stop offset=".34" stop-color="#ff3372"></stop><stop offset=".43" stop-color="#ec2799"></stop><stop offset=".49" stop-color="#df20b3"></stop><stop offset=".61" stop-color="#1820f1"></stop><stop offset=".62" stop-color="#0020f9"></stop></radialGradient></defs><g data-name="Layer 2"><path fill="none" d="M0 0h24v24H0z"></path><path fill="url(#a)" d="M1 12C1 4 4 1 12 1s11 3 11 11-3 11-11 11S1 20 1 12"></path><path fill="#fff" d="M12 15.34h-.18a3.38 3.38 0 0 1-3.16-3.16 3.33 3.33 0 0 1 .91-2.48 3.38 3.38 0 0 1 2.43-1 3.34 3.34 0 0 1 2.77 1.47 3.27 3.27 0 0 1 .57 1.83 3.38 3.38 0 0 1-1 2.43 3.34 3.34 0 0 1-2.34.91zm0-5.4a2.07 2.07 0 0 0-2 2.17 2.05 2.05 0 0 0 1.94 1.94A2.07 2.07 0 0 0 14.06 12a2.13 2.13 0 0 0-.35-1.15A2.08 2.08 0 0 0 12 9.94zm4.42-1.56a.8.8 0 1 1-.8-.8.82.82 0 0 1 .31.07.8.8 0 0 1 .49.73z"></path><path fill="#fff" d="M14.63 18.64H9.37a4 4 0 0 1-4-4V9.37a4 4 0 0 1 4-4h5.26a4 4 0 0 1 4 4v5.26a4 4 0 0 1-4 4.01Zm-5.26-12a2.74 2.74 0 0 0-2.73 2.73v5.26a2.74 2.74 0 0 0 2.73 2.73h5.26a2.74 2.74 0 0 0 2.73-2.73V9.37a2.74 2.74 0 0 0-2.73-2.73Z"></path></g></svg>