<svg width="171" height="34" viewBox="0 0 171 34" fill="none" xmlns="http://www.w3.org/2000/svg">
<path d="M24.745 0.619251C24.8993 0.24455 25.2645 0 25.6697 0H32.5068C33.2186 0 33.7025 0.722578 33.4315 1.38075L20.255 33.3807C20.1007 33.7555 19.7355 34 19.3303 34H12.4932C11.7814 34 11.2975 33.2774 11.5685 32.6193L24.745 0.619251Z" fill="#1351D8"/>
<path d="M13.745 0.619251C13.8993 0.24455 14.2645 0 14.6697 0H21.5068C22.2186 0 22.7025 0.722578 22.4315 1.38075L9.25499 33.3807C9.1007 33.7555 8.73553 34 8.33031 34H1.49322C0.781437 34 0.297532 33.2774 0.568544 32.6193L13.745 0.619251Z" fill="#2C2C2C"/>
<path d="M35.745 0.619251C35.8993 0.24455 36.2645 0 36.6697 0H43.5068C44.2186 0 44.7025 0.722578 44.4315 1.38075L31.255 33.3807C31.1007 33.7555 30.7355 34 30.3303 34H23.4932C22.7814 34 22.2975 33.2774 22.5685 32.6193L35.745 0.619251Z" fill="#1351D8" fill-opacity="0.5"/>
<path d="M46.745 0.619251C46.8993 0.24455 47.2645 0 47.6697 0H54.5068C55.2186 0 55.7025 0.722578 55.4315 1.38075L42.255 33.3807C42.1007 33.7555 41.7355 34 41.3303 34H34.4932C33.7814 34 33.2975 33.2774 33.5685 32.6193L46.745 0.619251Z" fill="#1351D8" fill-opacity="0.25"/>
<path d="M66.884 19.332H70.394C70.4633 19.9213 70.732 20.4587 71.2 20.944C71.6853 21.412 72.318 21.7847 73.098 22.062C73.878 22.322 74.7533 22.452 75.724 22.452C76.608 22.452 77.336 22.3567 77.908 22.166C78.48 21.9753 78.9047 21.7067 79.182 21.36C79.4593 21.0133 79.598 20.5973 79.598 20.112C79.598 19.644 79.4247 19.2887 79.078 19.046C78.7313 18.786 78.1853 18.578 77.44 18.422C76.6947 18.2487 75.7153 18.0753 74.502 17.902C73.5487 17.7633 72.6473 17.5727 71.798 17.33C70.9487 17.07 70.1947 16.7407 69.536 16.342C68.8947 15.9433 68.3833 15.458 68.002 14.886C67.638 14.2967 67.456 13.6033 67.456 12.806C67.456 11.818 67.7333 10.9513 68.288 10.206C68.86 9.46067 69.7007 8.88 70.81 8.464C71.9193 8.048 73.28 7.84 74.892 7.84C77.3187 7.84 79.182 8.36 80.482 9.4C81.7993 10.4227 82.4407 11.8353 82.406 13.638H79.026C78.9567 12.6153 78.5233 11.8787 77.726 11.428C76.946 10.9773 75.958 10.752 74.762 10.752C73.6527 10.752 72.734 10.9167 72.006 11.246C71.2953 11.5753 70.94 12.1387 70.94 12.936C70.94 13.248 71.0267 13.5253 71.2 13.768C71.3733 13.9933 71.668 14.1927 72.084 14.366C72.5 14.5393 73.0633 14.704 73.774 14.86C74.4847 15.016 75.3687 15.172 76.426 15.328C77.414 15.4667 78.3067 15.6573 79.104 15.9C79.9187 16.1253 80.612 16.4287 81.184 16.81C81.7733 17.174 82.224 17.642 82.536 18.214C82.848 18.786 83.004 19.488 83.004 20.32C83.004 21.3427 82.7353 22.2353 82.198 22.998C81.678 23.7433 80.8633 24.324 79.754 24.74C78.662 25.156 77.2407 25.364 75.49 25.364C74.242 25.364 73.1413 25.234 72.188 24.974C71.2347 24.6967 70.4113 24.3327 69.718 23.882C69.0247 23.4313 68.4613 22.9373 68.028 22.4C67.5947 21.8627 67.2827 21.3253 67.092 20.788C66.9187 20.2507 66.8493 19.7653 66.884 19.332ZM102.646 8.178L95.2624 19.696V25H91.7784V19.696L84.3944 8.178H88.3984L94.6124 18.24H92.5324L98.6424 8.178H102.646ZM122.204 21.568L121.112 22.01V8.178H124.57V25H121.112L107.514 11.714L108.606 11.272V25H105.148V8.178H108.606L122.204 21.568ZM148.214 18.942C148.058 20.294 147.581 21.4467 146.784 22.4C145.987 23.3533 144.903 24.0813 143.534 24.584C142.165 25.0867 140.535 25.338 138.646 25.338C137.069 25.338 135.621 25.156 134.304 24.792C133.004 24.428 131.877 23.882 130.924 23.154C129.988 22.426 129.26 21.5247 128.74 20.45C128.22 19.358 127.96 18.084 127.96 16.628C127.96 15.172 128.22 13.898 128.74 12.806C129.26 11.714 129.988 10.804 130.924 10.076C131.877 9.33067 133.004 8.776 134.304 8.412C135.621 8.03067 137.069 7.84 138.646 7.84C140.535 7.84 142.165 8.1 143.534 8.62C144.921 9.14 146.013 9.88533 146.81 10.856C147.607 11.8093 148.075 12.9707 148.214 14.34H144.782C144.557 13.612 144.175 12.988 143.638 12.468C143.118 11.9307 142.442 11.5233 141.61 11.246C140.778 10.9687 139.79 10.83 138.646 10.83C137.225 10.83 135.977 11.0553 134.902 11.506C133.827 11.9393 132.995 12.5893 132.406 13.456C131.817 14.3053 131.522 15.3627 131.522 16.628C131.522 17.876 131.817 18.9247 132.406 19.774C132.995 20.6233 133.827 21.2733 134.902 21.724C135.977 22.1573 137.225 22.374 138.646 22.374C139.79 22.374 140.769 22.2353 141.584 21.958C142.416 21.6807 143.092 21.282 143.612 20.762C144.149 20.242 144.539 19.6353 144.782 18.942H148.214ZM158.79 16.81L158.764 15.354L170.1 25H165.108L155.02 16.16L163.99 8.178H168.904L158.79 16.81ZM151.588 8.178H155.046V25H151.588V8.178Z" fill="#1E1E1E"/>
</svg>
