<svg xmlns="http://www.w3.org/2000/svg" width="128" height="128" enable-background="new 0 0 128 128" viewBox="0 0 128 128" id="music-web"><linearGradient id="a" x1="74.381" x2="53.62" y1="93.338" y2="57.378" gradientUnits="userSpaceOnUse"><stop offset="0" stop-color="#0047bf"></stop><stop offset=".125" stop-color="#0943c0"></stop><stop offset=".331" stop-color="#2237c4"></stop><stop offset=".593" stop-color="#4b24c9"></stop><stop offset=".898" stop-color="#840ad1"></stop><stop offset="1" stop-color="#9800d4"></stop></linearGradient><path fill="url(#a)" d="M72.458,77.016c-1.855,0-3.364,1.509-3.364,3.363c0,1.854,1.509,3.361,3.364,3.361
				c1.854,0,3.361-1.508,3.361-3.361C75.82,78.524,74.312,77.016,72.458,77.016z"></path><linearGradient id="b" x1="74.381" x2="53.62" y1="93.338" y2="57.378" gradientUnits="userSpaceOnUse"><stop offset="0" stop-color="#0047bf"></stop><stop offset=".125" stop-color="#0943c0"></stop><stop offset=".331" stop-color="#2237c4"></stop><stop offset=".593" stop-color="#4b24c9"></stop><stop offset=".898" stop-color="#840ad1"></stop><stop offset="1" stop-color="#9800d4"></stop></linearGradient><path fill="url(#b)" d="M64,54.592c-11.45,0-20.766,9.315-20.766,20.766S52.55,96.123,64,96.123
				s20.766-9.315,20.766-20.766S75.451,54.592,64,54.592z M72.458,86.74c-3.509,0-6.364-2.854-6.364-6.361
				c0-3.509,2.855-6.363,6.364-6.363c1.235,0,2.385,0.359,3.361,0.971V64.772l-13.914,2v16.036c0,3.509-2.854,6.363-6.363,6.363
				c-3.508,0-6.362-2.854-6.362-6.363s2.854-6.363,6.362-6.363c1.235,0,2.386,0.359,3.363,0.971V65.473
				c0-0.746,0.548-1.378,1.287-1.485l16.914-2.432c0.433-0.062,0.867,0.067,1.196,0.351c0.329,0.285,0.518,0.699,0.518,1.134v17.338
				C78.82,83.887,75.966,86.74,72.458,86.74z"></path><linearGradient id="c" x1="74.381" x2="53.62" y1="93.338" y2="57.378" gradientUnits="userSpaceOnUse"><stop offset="0" stop-color="#0047bf"></stop><stop offset=".125" stop-color="#0943c0"></stop><stop offset=".331" stop-color="#2237c4"></stop><stop offset=".593" stop-color="#4b24c9"></stop><stop offset=".898" stop-color="#840ad1"></stop><stop offset="1" stop-color="#9800d4"></stop></linearGradient><path fill="url(#c)" d="M55.542,79.445c-1.854,0-3.362,1.509-3.362,3.363s1.508,3.363,3.362,3.363
				c1.854,0,3.363-1.509,3.363-3.363S57.397,79.445,55.542,79.445z"></path><path fill="#333" d="M89.863,58.639c-0.687,0-1.391,0.098-2.094,0.292c-0.634,0.171-1.305-0.083-1.66-0.635
		c-0.355-0.552-0.31-1.271,0.111-1.774c2.254-2.695,3.496-6.114,3.496-9.625c0-8.282-6.737-15.02-15.018-15.02
		c-6.205,0-11.847,3.911-14.041,9.732c-0.166,0.438-0.526,0.775-0.975,0.909c-0.449,0.132-0.935,0.05-1.313-0.226
		c-2.038-1.488-4.437-2.274-6.939-2.274c-6.503,0-11.794,5.291-11.794,11.795c0,1.655,0.345,3.267,1.026,4.793
		c0.221,0.494,0.158,1.068-0.164,1.503s-0.854,0.659-1.39,0.597c-0.37-0.046-0.679-0.067-0.973-0.067
		c-4.319,0-7.833,3.514-7.833,7.832c0,4.32,3.514,7.834,7.833,7.834h2.125C40.815,61.687,51.249,51.592,64,51.592
		s23.186,10.095,23.739,22.713h2.124c4.319,0,7.833-3.514,7.833-7.834C97.696,62.152,94.182,58.639,89.863,58.639z"></path></svg>