<svg width="13" height="14" viewBox="0 0 13 14" fill="none" xmlns="http://www.w3.org/2000/svg">
<path d="M0 0.859016V13.1403C8.22777e-05 13.1669 0.00802934 13.1929 0.0228447 13.2151C0.03766 13.2372 0.0586841 13.2545 0.0832806 13.2648C0.107877 13.275 0.134951 13.2778 0.161108 13.2727C0.187264 13.2676 0.211339 13.2549 0.230312 13.2362L6.625 6.99995L0.230312 0.763078C0.211339 0.744371 0.187264 0.731682 0.161108 0.726603C0.134951 0.721523 0.107877 0.724279 0.0832806 0.734525C0.0586841 0.744771 0.03766 0.76205 0.0228447 0.784197C0.00802934 0.806343 8.22777e-05 0.832371 0 0.859016Z" fill="white"/>
<path d="M9.30623 4.43759L1.28811 0.0200932L1.28311 0.0172807C1.14498 -0.0577193 1.01373 0.129156 1.12686 0.237906L7.41217 6.24791L9.30623 4.43759Z" fill="white"/>
<path d="M1.12722 13.7621C1.01347 13.8708 1.14472 14.0577 1.28347 13.9827L1.28847 13.9799L9.30597 9.5624L7.41191 7.75146L1.12722 13.7621Z" fill="white"/>
<path d="M12.5436 6.21897L10.3045 4.98584L8.19922 7.00022L10.3045 9.01365L12.5436 7.78147C13.1527 7.4449 13.1527 6.55553 12.5436 6.21897Z" fill="white"/>
</svg>
