<svg width="8" height="8" viewBox="0 0 12 12" fill="none" xmlns="http://www.w3.org/2000/svg">
<path d="M10.1762 3.11614L1.55157 11.7277C1.37312 11.9092 1.16067 12 0.91422 12C0.667767 12 0.453783 11.9088 0.27227 11.7265C0.0907564 11.5442 0 11.3271 0 11.0753C0 10.8236 0.0907564 10.6069 0.27227 10.4254L8.88386 1.82384H1.41842C1.16199 1.82384 0.945899 1.73557 0.770142 1.55905C0.594384 1.38251 0.506506 1.16546 0.506506 0.907889C0.506506 0.650308 0.594384 0.434597 0.770142 0.260758C0.945899 0.0869192 1.16199 0 1.41842 0H11.0881C11.3445 0 11.5606 0.0878785 11.7364 0.263636C11.9121 0.439394 12 0.655488 12 0.911918V10.5816C12 10.838 11.9117 11.0541 11.7352 11.2299C11.5587 11.4056 11.3416 11.4935 11.0841 11.4935C10.8265 11.4935 10.6108 11.4056 10.4369 11.2299C10.2631 11.0541 10.1762 10.838 10.1762 10.5816V3.11614Z" fill="#1351D8"></path>
</svg>