<svg width="50" height="50" viewBox="0 0 50 50" fill="none" xmlns="http://www.w3.org/2000/svg">
<path d="M45.8332 18.7503V14.5837C45.8332 13.4786 45.3942 12.4188 44.6128 11.6374C43.8314 10.856 42.7716 10.417 41.6665 10.417H8.33317C7.2281 10.417 6.16829 10.856 5.38689 11.6374C4.60549 12.4188 4.1665 13.4786 4.1665 14.5837V35.417C4.1665 36.5221 4.60549 37.5819 5.38689 38.3633C6.16829 39.1447 7.2281 39.5837 8.33317 39.5837H29.1665M45.8332 18.7503H12.4998M45.8332 18.7503V27.0837M44.0978 38.542H44.5832C44.9147 38.542 45.2326 38.6737 45.4671 38.9081C45.7015 39.1425 45.8332 39.4605 45.8332 39.792V44.5837C45.8332 44.9152 45.7015 45.2331 45.4671 45.4675C45.2326 45.702 44.9147 45.8337 44.5832 45.8337H36.6665C36.335 45.8337 36.017 45.702 35.7826 45.4675C35.5482 45.2331 35.4165 44.9152 35.4165 44.5837V39.792C35.4165 39.4605 35.5482 39.1425 35.7826 38.9081C36.017 38.6737 36.335 38.542 36.6665 38.542H37.1519M44.0978 38.542V34.8962C44.0978 33.6816 43.4019 31.2503 40.6248 31.2503C37.8478 31.2503 37.1519 33.6816 37.1519 34.8962V38.542M44.0978 38.542H37.1519" stroke="#1351D8" stroke-width="1.8" stroke-linecap="round" stroke-linejoin="round"/>
</svg>
