<svg width="50" height="50" viewBox="0 0 50 50" fill="none" xmlns="http://www.w3.org/2000/svg">
<path d="M25 43.75H8.33329H5.16663C4.61434 43.75 4.16663 43.3023 4.16663 42.75V39.5833V10.4167V7.24999C4.16663 6.69771 4.61434 6.24999 5.16663 6.24999H8.33329H41.6666H44.8333C45.3856 6.24999 45.8333 6.69771 45.8333 7.24999V10.4167V25" stroke="#1351D8" stroke-width="1.7" stroke-linecap="round"/>
<path d="M4.16663 14.5834H45.8333M10.4166 10.4375L10.4375 10.4146M16.6666 10.4375L16.6875 10.4146M22.9166 10.4375L22.9375 10.4146" stroke="#1351D8" stroke-width="1.7" stroke-linecap="round" stroke-linejoin="round"/>
<path d="M37.1756 29.4431C37.3625 29.2838 37.6374 29.2838 37.8243 29.4431L39.9289 31.2367C40.0089 31.3049 40.1085 31.3462 40.2134 31.3546L42.9669 31.5744C43.2117 31.594 43.406 31.7883 43.4255 32.0331L43.6454 34.7866C43.6538 34.8915 43.695 34.991 43.7633 35.0711L45.5569 37.1757C45.7162 37.3626 45.7162 37.6375 45.5569 37.8243L43.7633 39.9289C43.695 40.009 43.6538 40.1086 43.6454 40.2134L43.4255 42.967C43.406 43.2117 43.2117 43.4061 42.9669 43.4256L40.2134 43.6455C40.1085 43.6538 40.0089 43.6951 39.9289 43.7633L37.8243 45.557C37.6374 45.7162 37.3625 45.7162 37.1756 45.557L35.0711 43.7633C34.991 43.6951 34.8914 43.6538 34.7865 43.6455L32.033 43.4256C31.7883 43.4061 31.5939 43.2117 31.5744 42.967L31.3416 40.0521L29.443 37.8243C29.2838 37.6375 29.2838 37.3626 29.443 37.1757L31.2366 35.0711C31.3049 34.991 31.3461 34.8915 31.3545 34.7866L31.5744 32.0331C31.5939 31.7883 31.7883 31.594 32.033 31.5744L34.7865 31.3546C34.8914 31.3462 34.991 31.3049 35.0711 31.2367L37.1756 29.4431Z" stroke="#1351D8" stroke-width="1.7"/>
<path d="M35.4344 43.0875L35.2496 42.9301L35.0076 42.9107L32.305 42.6949L32.0892 39.9924L32.0699 39.7504L31.9124 39.5656L30.152 37.5L31.9124 35.4344L32.0699 35.2496L32.0892 35.0076L32.305 32.3051L35.0076 32.0893L35.2648 32.0688L35.455 31.8943L36.7497 30.7062L36.7499 44.2087L35.4344 43.0875Z" stroke="#1351D8" stroke-width="1.5"/>
</svg>
