<svg width="44" height="39" viewBox="0 0 44 39" fill="none" xmlns="http://www.w3.org/2000/svg">
<path d="M3.25 6.50002H42.8333L36.5833 27.3334H9.5L3.25 6.50002ZM3.25 6.50002L1.6875 1.29169M17.8167 16.9167H21.9833M21.9833 16.9167H26.15M21.9833 16.9167V12.75M21.9833 16.9167V21.0834M19.9167 34.625C19.9167 35.4538 19.5874 36.2487 19.0014 36.8347C18.4153 37.4208 17.6205 37.75 16.7917 37.75C15.9629 37.75 15.168 37.4208 14.582 36.8347C13.9959 36.2487 13.6667 35.4538 13.6667 34.625M32.4167 34.625C32.4167 35.4538 32.0874 36.2487 31.5014 36.8347C30.9153 37.4208 30.1205 37.75 29.2917 37.75C28.4629 37.75 27.668 37.4208 27.082 36.8347C26.4959 36.2487 26.1667 35.4538 26.1667 34.625" stroke="#1351D8" stroke-width="1.8" stroke-linecap="round" stroke-linejoin="round"/>
</svg>
