<svg width="50" height="50" viewBox="0 0 50 50" fill="none" xmlns="http://www.w3.org/2000/svg">
<path d="M16.6667 35.4163C16.3904 35.4163 16.1254 35.3066 15.9301 35.1112C15.7347 34.9159 15.625 34.6509 15.625 34.3747C15.625 34.0984 15.7347 33.8335 15.9301 33.6381C16.1254 33.4428 16.3904 33.333 16.6667 33.333C16.9429 33.333 17.2079 33.4428 17.4032 33.6381C17.5986 33.8335 17.7083 34.0984 17.7083 34.3747C17.7083 34.6509 17.5986 34.9159 17.4032 35.1112C17.2079 35.3066 16.9429 35.4163 16.6667 35.4163ZM25 35.4163C24.7237 35.4163 24.4588 35.3066 24.2634 35.1112C24.0681 34.9159 23.9583 34.6509 23.9583 34.3747C23.9583 34.0984 24.0681 33.8335 24.2634 33.6381C24.4588 33.4428 24.7237 33.333 25 33.333C25.2763 33.333 25.5412 33.4428 25.7366 33.6381C25.9319 33.8335 26.0417 34.0984 26.0417 34.3747C26.0417 34.6509 25.9319 34.9159 25.7366 35.1112C25.5412 35.3066 25.2763 35.4163 25 35.4163ZM33.3333 35.4163C33.0571 35.4163 32.7921 35.3066 32.5968 35.1112C32.4014 34.9159 32.2917 34.6509 32.2917 34.3747C32.2917 34.0984 32.4014 33.8335 32.5968 33.6381C32.7921 33.4428 33.0571 33.333 33.3333 33.333C33.6096 33.333 33.8746 33.4428 34.0699 33.6381C34.2653 33.8335 34.375 34.0984 34.375 34.3747C34.375 34.6509 34.2653 34.9159 34.0699 35.1112C33.8746 35.3066 33.6096 35.4163 33.3333 35.4163Z" fill="black" stroke="#1351D8" stroke-width="1.8" stroke-linecap="round" stroke-linejoin="round"/>
<path d="M4.1665 36.4583L8.33317 34.375M45.8332 36.4583L41.6665 34.375M43.7498 43.75H6.24984C5.6973 43.75 5.1674 43.5305 4.7767 43.1398C4.386 42.7491 4.1665 42.2192 4.1665 41.6667V8.33333C4.1665 7.7808 4.386 7.25089 4.7767 6.86019C5.1674 6.46949 5.6973 6.25 6.24984 6.25H43.7498C44.3024 6.25 44.8323 6.46949 45.223 6.86019C45.6137 7.25089 45.8332 7.7808 45.8332 8.33333V41.6667C45.8332 42.2192 45.6137 42.7491 45.223 43.1398C44.8323 43.5305 44.3024 43.75 43.7498 43.75Z" stroke="#1351D8" stroke-width="1.8" stroke-linecap="round" stroke-linejoin="round"/>
</svg>
