<svg width="50" height="50" viewBox="0 0 50 50" fill="none" xmlns="http://www.w3.org/2000/svg">
<path d="M20.9375 22.0979L6.20833 36.8271L4.5 38.5354L10.3531 44.3884L12.1 42.7229L26.8292 27.9896M35.8188 28.75L43.8979 36.8291L46.2004 39.1316L40.2854 44.9999L38.0063 42.7208L25.0708 29.7875M14.0271 12.3L9.60417 13.7708L5.1875 6.40622L8.13333 3.46039L15.5 7.87914L14.0271 12.3ZM14.0271 12.3L19.9229 18.1958" stroke="#1351D8" stroke-width="1.6" stroke-linecap="round" stroke-linejoin="round"/>
<path d="M21.0002 21.9999V12.2271L26.8312 4.99994L37.1417 5.89374L30.8083 12.2271L30.2187 18.7083L36.7 18.1208L43.0333 11.7854V20.4999L36.5002 27.9999H26.5002" stroke="#1351D8" stroke-width="1.6" stroke-linecap="round" stroke-linejoin="round"/>
</svg>
