<svg width="50" height="50" viewBox="0 0 50 50" fill="none" xmlns="http://www.w3.org/2000/svg">
<path d="M18.7502 18.75L28.1252 25L37.5002 18.75M6.25016 28.125H10.4168M2.0835 21.875H10.4168" stroke="#1351D8" stroke-width="1.8" stroke-linecap="round" stroke-linejoin="round"/>
<path d="M10.4165 15.6253V14.5837C10.4165 13.4786 10.8555 12.4188 11.6369 11.6374C12.4183 10.856 13.4781 10.417 14.5832 10.417H41.6665C42.7716 10.417 43.8314 10.856 44.6128 11.6374C45.3942 12.4188 45.8332 13.4786 45.8332 14.5837V35.417C45.8332 36.5221 45.3942 37.5819 44.6128 38.3633C43.8314 39.1447 42.7716 39.5837 41.6665 39.5837H14.5832C13.4781 39.5837 12.4183 39.1447 11.6369 38.3633C10.8555 37.5819 10.4165 36.5221 10.4165 35.417V34.3753" stroke="#1351D8" stroke-width="1.8" stroke-linecap="round"/>
</svg>
