<svg width="85" height="24" viewBox="0 0 85 24" fill="none" xmlns="http://www.w3.org/2000/svg">
<path d="M18.1003 4.50077C18.0835 4.3828 17.9823 4.31539 17.8981 4.31539C17.8138 4.31539 16.1453 4.28168 16.1453 4.28168C16.1453 4.28168 14.7465 2.93343 14.6117 2.78175C14.4769 2.64692 14.2072 2.68063 14.1061 2.71433C14.1061 2.71433 13.8365 2.7986 13.3983 2.93342C13.3309 2.69748 13.2129 2.41098 13.0612 2.10762C12.5725 1.16384 11.8309 0.658247 10.9546 0.658247C10.8871 0.658247 10.8366 0.658247 10.7692 0.6751C10.7355 0.641394 10.7186 0.607687 10.6849 0.590834C10.2973 0.186358 9.80854 -0.0158799 9.21868 0.000973259C8.08952 0.0346796 6.96036 0.860485 6.03343 2.30986C5.39301 3.3379 4.90427 4.61874 4.75259 5.61308C3.4549 6.01755 2.54483 6.30406 2.51112 6.30406C1.85385 6.5063 1.837 6.52315 1.75273 7.14672C1.71902 7.61861 0 20.9158 0 20.9158L14.4263 23.41L20.6788 21.8595C20.662 21.8595 18.1172 4.61874 18.1003 4.50077ZM12.6736 3.16937C12.3365 3.27049 11.9657 3.38846 11.5613 3.52329C11.5613 2.95028 11.477 2.14133 11.2242 1.4672C12.0837 1.60202 12.505 2.57951 12.6736 3.16937ZM10.8029 3.74238C10.0445 3.97832 9.21868 4.23112 8.39288 4.48392C8.62882 3.5907 9.067 2.71433 9.60631 2.12447C9.80854 1.90538 10.095 1.66944 10.4153 1.53461C10.7523 2.19189 10.8197 3.11881 10.8029 3.74238ZM9.25239 0.759366C9.52204 0.759366 9.74113 0.809925 9.92652 0.944751C9.62316 1.09643 9.3198 1.33237 9.05015 1.63573C8.32547 2.41098 7.76931 3.60755 7.55022 4.77042C6.85924 4.98951 6.18511 5.19175 5.5784 5.37713C5.98287 3.54014 7.51651 0.809925 9.25239 0.759366Z" fill="#95BF47"/>
<path d="M17.8981 4.31539C17.8138 4.31539 16.1453 4.28168 16.1453 4.28168C16.1453 4.28168 14.7465 2.93343 14.6117 2.78175C14.5611 2.73119 14.4938 2.69762 14.4264 2.69762L14.4263 23.41L20.6788 21.8595C20.6788 21.8595 18.1341 4.61888 18.1172 4.5009C18.0835 4.38293 17.9823 4.31539 17.8981 4.31539Z" fill="#5E8E3E"/>
<path d="M10.9548 7.53421L10.2302 10.2476C10.2302 10.2476 9.42121 9.8768 8.46058 9.94421C7.04491 10.0285 7.04491 10.9217 7.04491 11.1408C7.12918 12.3542 10.3144 12.6239 10.4998 15.4721C10.6346 17.7135 9.32009 19.2472 7.39883 19.3651C5.1068 19.4831 3.84281 18.1349 3.84281 18.1349L4.33155 16.0619C4.33155 16.0619 5.61239 17.0225 6.62358 16.9551C7.28086 16.9214 7.53365 16.3653 7.49995 15.9945C7.39883 14.4103 4.80344 14.5114 4.63491 11.8992C4.50008 9.70827 5.9326 7.50051 9.101 7.29827C10.3313 7.214 10.9548 7.53421 10.9548 7.53421Z" fill="white"/>
<path d="M29.1393 13.3151C28.4146 12.9275 28.0438 12.5904 28.0438 12.1354C28.0438 11.5624 28.5663 11.1916 29.3752 11.1916C30.319 11.1916 31.1617 11.5792 31.1617 11.5792L31.8189 9.55684C31.8189 9.55684 31.2122 9.08495 29.4258 9.08495C26.9315 9.08495 25.1956 10.5175 25.1956 12.523C25.1956 13.669 26.0046 14.5285 27.0832 15.1521C27.9596 15.6408 28.2629 15.9948 28.2629 16.5172C28.2629 17.0565 27.8247 17.4947 27.0158 17.4947C25.8192 17.4947 24.6732 16.8711 24.6732 16.8711L23.9654 18.8935C23.9654 18.8935 25.0103 19.6013 26.7798 19.6013C29.3415 19.6013 31.1954 18.3373 31.1954 16.0622C31.1785 14.8319 30.2516 13.9555 29.1393 13.3151Z" fill="white"/>
<path d="M39.3524 9.05139C38.0884 9.05139 37.094 9.65811 36.3356 10.5682L36.3019 10.5513L37.3974 4.82125H34.5492L31.7684 19.4161H34.6166L35.5604 14.4276C35.9312 12.54 36.9086 11.3771 37.8187 11.3771C38.4591 11.3771 38.7119 11.8153 38.7119 12.4389C38.7119 12.8265 38.6782 13.3152 38.594 13.7029L37.5154 19.4161H40.3635L41.4759 13.5175C41.5938 12.8939 41.6781 12.1524 41.6781 11.6468C41.6949 10.0289 40.8523 9.05139 39.3524 9.05139Z" fill="white"/>
<path d="M48.1495 9.05114C44.7114 9.05114 42.4362 12.1521 42.4362 15.607C42.4362 17.8148 43.8014 19.6012 46.363 19.6012C49.7337 19.6012 52.0088 16.5845 52.0088 13.0453C52.0257 11.0061 50.8291 9.05114 48.1495 9.05114ZM46.7507 17.4272C45.7732 17.4272 45.3687 16.6014 45.3687 15.5565C45.3687 13.9217 46.2114 11.2589 47.7618 11.2589C48.773 11.2589 49.1101 12.1353 49.1101 12.9779C49.1101 14.7307 48.2506 17.4272 46.7507 17.4272Z" fill="white"/>
<path d="M59.3235 9.05114C57.4022 9.05114 56.3068 10.7533 56.3068 10.7533H56.2731L56.4416 9.21968H53.9136C53.7957 10.2477 53.5597 11.8319 53.3406 13.0116L51.352 23.4606H54.2001L54.9922 19.2305H55.0597C55.0597 19.2305 55.6495 19.6012 56.7281 19.6012C60.0819 19.6012 62.2728 16.1632 62.2728 12.6914C62.2728 10.7702 61.4133 9.05114 59.3235 9.05114ZM56.5933 17.4609C55.8517 17.4609 55.4136 17.0395 55.4136 17.0395L55.8855 14.3767C56.2225 12.5903 57.1494 11.4106 58.1438 11.4106C59.0201 11.4106 59.2898 12.2195 59.2898 12.9779C59.2898 14.8318 58.1943 17.4609 56.5933 17.4609Z" fill="white"/>
<path d="M66.3508 4.95601C65.4407 4.95601 64.716 5.6807 64.716 6.60762C64.716 7.45028 65.2553 8.04014 66.0643 8.04014H66.098C66.9912 8.04014 67.7496 7.43343 67.7664 6.38853C67.7664 5.56273 67.2103 4.95601 66.3508 4.95601Z" fill="white"/>
<path d="M62.3568 19.3991H65.2049L67.1431 9.28718H64.278L62.3568 19.3991Z" fill="white"/>
<path d="M74.4066 9.2705H72.4179L72.519 8.79861C72.6876 7.82112 73.2606 6.96161 74.2212 6.96161C74.7268 6.96161 75.1313 7.11329 75.1313 7.11329L75.6875 4.87182C75.6875 4.87182 75.1987 4.61902 74.137 4.61902C73.1258 4.61902 72.1146 4.90553 71.3393 5.5628C70.3618 6.3886 69.9068 7.58518 69.6877 8.79861L69.6034 9.2705H68.272L67.8507 11.4277H69.1821L67.6653 19.4161H70.5135L72.0303 11.4277H74.0021L74.4066 9.2705Z" fill="white"/>
<path d="M81.2825 9.28718C81.2825 9.28718 79.4961 13.787 78.704 16.2475H78.6703C78.6197 15.4554 77.9625 9.28718 77.9625 9.28718H74.9626L76.6816 18.5733C76.7153 18.7755 76.6985 18.9103 76.6142 19.0452C76.2772 19.6856 75.721 20.3092 75.0637 20.7642C74.5244 21.1518 73.9177 21.4046 73.4458 21.5731L74.2379 24C74.8109 23.882 76.0244 23.3933 77.0356 22.4495C78.3332 21.2361 79.5467 19.3485 80.777 16.7868L84.2656 9.28718H81.2825Z" fill="white"/>
</svg>
