<svg width="58" height="24" viewBox="0 0 58 24" fill="none" xmlns="http://www.w3.org/2000/svg">
<path fill-rule="evenodd" clip-rule="evenodd" d="M57.6769 12.4006C57.6769 8.2991 55.6903 5.06279 51.8932 5.06279C48.0801 5.06279 45.7731 8.2991 45.7731 12.3685C45.7731 17.1909 48.4967 19.6262 52.4059 19.6262C54.3124 19.6262 55.7544 19.1936 56.8438 18.5848V15.3805C55.7544 15.9253 54.5047 16.2617 52.9186 16.2617C51.3645 16.2617 49.9867 15.717 49.8104 13.8265H57.6449C57.6449 13.6182 57.6769 12.7851 57.6769 12.4006ZM49.7624 10.8785C49.7624 9.06812 50.8678 8.31512 51.8772 8.31512C52.8545 8.31512 53.8959 9.06812 53.8959 10.8785H49.7624Z" fill="#635BFF"/>
<path fill-rule="evenodd" clip-rule="evenodd" d="M39.5887 5.06278C38.0186 5.06278 37.0093 5.79976 36.4485 6.31244L36.2402 5.31912H32.7155V24L36.7209 23.1509L36.7369 18.6168C37.3137 19.0334 38.1628 19.6262 39.5727 19.6262C42.4405 19.6262 45.052 17.3191 45.052 12.2403C45.036 7.59415 42.3924 5.06278 39.5887 5.06278ZM38.6274 16.1015C37.6822 16.1015 37.1214 15.765 36.7369 15.3485L36.7209 9.40456C37.1374 8.93994 37.7142 8.61952 38.6274 8.61952C40.0854 8.61952 41.0947 10.2537 41.0947 12.3525C41.0947 14.4993 40.1014 16.1015 38.6274 16.1015Z" fill="#635BFF"/>
<path fill-rule="evenodd" clip-rule="evenodd" d="M27.2041 4.11749L31.2255 3.25233V0L27.2041 0.849131V4.11749Z" fill="#635BFF"/>
<path d="M31.2255 5.33512H27.2041V19.3538H31.2255V5.33512Z" fill="#635BFF"/>
<path fill-rule="evenodd" clip-rule="evenodd" d="M22.8942 6.52069L22.6379 5.33511H19.1773V19.3538H23.1826V9.85313C24.1279 8.61949 25.73 8.84379 26.2267 9.02002V5.33511C25.714 5.14286 23.8395 4.79039 22.8942 6.52069Z" fill="#635BFF"/>
<path fill-rule="evenodd" clip-rule="evenodd" d="M14.8837 1.85846L10.9745 2.69157L10.9584 15.5247C10.9584 17.8958 12.7368 19.6421 15.108 19.6421C16.4217 19.6421 17.383 19.4018 17.9117 19.1134V15.8611C17.399 16.0694 14.8676 16.8064 14.8676 14.4352V8.74763H17.9117V5.33509H14.8676L14.8837 1.85846Z" fill="#635BFF"/>
<path fill-rule="evenodd" clip-rule="evenodd" d="M4.0534 9.40457C4.0534 8.77974 4.56608 8.53942 5.41521 8.53942C6.63284 8.53942 8.17088 8.90791 9.38851 9.56479V5.79977C8.05873 5.27107 6.74499 5.06279 5.41521 5.06279C2.16288 5.06279 0 6.76105 0 9.59683C0 14.0187 6.08811 13.3138 6.08811 15.2203C6.08811 15.9573 5.44726 16.1976 4.55006 16.1976C3.22029 16.1976 1.52203 15.6529 0.176235 14.9159V18.729C1.66622 19.3698 3.17223 19.6422 4.55006 19.6422C7.8825 19.6422 10.1736 17.992 10.1736 15.1242C10.1575 10.3498 4.0534 11.199 4.0534 9.40457Z" fill="#635BFF"/>
</svg>
