<svg width="50" height="50" viewBox="0 0 50 50" fill="none" xmlns="http://www.w3.org/2000/svg">
<path d="M41.6666 22.9167C41.6666 18.4964 39.9107 14.2572 36.7851 11.1316C33.6595 8.00595 29.4203 6.25 25 6.25C20.5797 6.25 16.3405 8.00595 13.2149 11.1316C10.0893 14.2572 8.33331 18.4964 8.33331 22.9167" stroke="#1351D8" stroke-width="1.8" stroke-linecap="round" stroke-linejoin="round"/>
<path d="M41.6667 37.5V38.5416C41.6667 39.6467 41.2277 40.7065 40.4463 41.4879C39.6649 42.2693 38.6051 42.7083 37.5 42.7083H30.2084M4.16669 32.1625V28.2541C4.16683 27.325 4.47753 26.4226 5.04941 25.6902C5.62128 24.9579 6.42152 24.4378 7.32294 24.2125L10.9479 23.3041C11.1321 23.2583 11.3244 23.2549 11.51 23.2944C11.6957 23.3339 11.87 23.4152 12.0196 23.532C12.1691 23.6489 12.2902 23.7983 12.3734 23.9689C12.4567 24.1395 12.5 24.3268 12.5 24.5166V35.8979C12.5003 36.0881 12.4573 36.2759 12.374 36.447C12.2908 36.618 12.1696 36.7678 12.0197 36.885C11.8698 37.0021 11.6952 37.0835 11.5091 37.1229C11.323 37.1623 11.1304 37.1588 10.9459 37.1125L7.32085 36.2062C6.41983 35.9805 5.62006 35.4602 5.04858 34.7279C4.47711 33.9957 4.16671 33.0934 4.16669 32.1646V32.1625ZM45.8334 32.1625V28.2541C45.8332 27.325 45.5225 26.4226 44.9506 25.6902C44.3788 24.9579 43.5785 24.4378 42.6771 24.2125L39.0521 23.3041C38.8679 23.2583 38.6757 23.2549 38.49 23.2944C38.3043 23.3339 38.1301 23.4152 37.9805 23.532C37.8309 23.6489 37.7099 23.7983 37.6266 23.9689C37.5434 24.1395 37.5001 24.3268 37.5 24.5166V35.8979C37.4998 36.0879 37.5428 36.2755 37.626 36.4463C37.7091 36.6172 37.83 36.7668 37.9797 36.8839C38.1293 37.001 38.3037 37.0825 38.4895 37.1221C38.6753 37.1617 38.8677 37.1584 39.0521 37.1125L42.6771 36.2062C43.5785 35.9809 44.3788 35.4608 44.9506 34.7285C45.5225 33.9961 45.8332 33.0937 45.8334 32.1646V32.1625Z" stroke="#1351D8" stroke-width="1.8"/>
<path d="M28.125 45.8335H21.875C21.0462 45.8335 20.2513 45.5043 19.6653 44.9182C19.0792 44.3322 18.75 43.5373 18.75 42.7085C18.75 41.8797 19.0792 41.0848 19.6653 40.4988C20.2513 39.9127 21.0462 39.5835 21.875 39.5835H28.125C28.9538 39.5835 29.7487 39.9127 30.3347 40.4988C30.9208 41.0848 31.25 41.8797 31.25 42.7085C31.25 43.5373 30.9208 44.3322 30.3347 44.9182C29.7487 45.5043 28.9538 45.8335 28.125 45.8335Z" stroke="#1351D8" stroke-width="1.8"/>
</svg>
