<?xml version="1.0" encoding="UTF-8" standalone="no"?>
<!-- Created with Inkscape (http://www.inkscape.org/) -->

<svg
   version="1.1"
   id="svg2"
   width="1333.3333"
   height="388.50534"
   viewBox="0 0 1333.3333 388.50534"
   sodipodi:docname="tik-tok-app-seeklogo.com.ai"
   xmlns:inkscape="http://www.inkscape.org/namespaces/inkscape"
   xmlns:sodipodi="http://sodipodi.sourceforge.net/DTD/sodipodi-0.dtd"
   xmlns="http://www.w3.org/2000/svg"
   xmlns:svg="http://www.w3.org/2000/svg">
  <defs
     id="defs6">
    <clipPath
       clipPathUnits="userSpaceOnUse"
       id="clipPath16">
      <path
         d="M 0,291.379 H 1000 V 0 H 0 Z"
         id="path14" />
    </clipPath>
  </defs>
  <sodipodi:namedview
     id="namedview4"
     pagecolor="#ffffff"
     bordercolor="#000000"
     borderopacity="0.25"
     inkscape:showpageshadow="2"
     inkscape:pageopacity="0.0"
     inkscape:pagecheckerboard="0"
     inkscape:deskcolor="#d1d1d1" />
  <g
     id="g8"
     inkscape:groupmode="layer"
     inkscape:label="tik-tok-app-seeklogo.com"
     transform="matrix(1.3333333,0,0,-1.3333333,0,388.50533)">
    <g
       id="g10">
      <g
         id="g12"
         clip-path="url(#clipPath16)">
        <g
           id="g18"
           transform="translate(283.3711,104.5831)">
          <path
             d="m 0,0 c -2.708,3.548 -4.17,7.889 -4.164,12.352 0,11.265 9.139,20.401 20.413,20.401 2.101,0 4.19,-0.321 6.192,-0.956 v 24.669 c -2.34,0.32 -4.702,0.456 -7.062,0.407 V 37.671 c -2.004,0.636 -4.094,0.958 -6.195,0.956 -11.275,0 -20.413,-9.134 -20.413,-20.402 C -11.229,10.258 -6.661,3.359 0,0 m 69.661,85.866 c -4.847,5.292 -8.028,12.13 -8.717,19.69 v 3.104 H 54.249 C 55.934,99.051 61.683,90.842 69.661,85.866 M 60.944,61.522 C 70.427,54.747 82.043,50.761 94.589,50.761 v 24.13 c -2.375,0 -4.743,0.247 -7.066,0.739 V 56.636 c -12.545,0 -24.16,3.986 -33.644,10.76 V 18.154 c 0,-24.633 -19.98,-44.601 -44.625,-44.601 -9.195,0 -17.742,2.778 -24.841,7.544 8.103,-8.282 19.403,-13.419 31.906,-13.419 24.646,0 44.626,19.968 44.626,44.602 v 49.242 z"
             style="fill:#ff004f;fill-opacity:1;fill-rule:nonzero;stroke:none"
             id="path20" />
        </g>
        <g
           id="g22"
           transform="translate(337.25,171.9801)">
          <path
             d="M 0,0 C 9.484,-6.774 21.099,-10.76 33.645,-10.76 V 8.233 C 26.642,9.724 20.442,13.382 15.782,18.469 7.803,23.445 2.055,31.654 0.37,41.263 h -17.588 v -96.379 c -0.04,-11.235 -9.162,-20.333 -20.413,-20.333 -6.629,0 -12.519,3.158 -16.249,8.052 -6.661,3.359 -11.229,10.258 -11.229,18.225 0,11.266 9.138,20.401 20.413,20.401 2.16,0 4.242,-0.336 6.195,-0.955 v 19.201 c -24.212,-0.5 -43.684,-20.272 -43.684,-44.591 0,-12.139 4.849,-23.144 12.719,-31.185 7.1,-4.765 15.647,-7.543 24.842,-7.543 24.645,0 44.624,19.969 44.624,44.601 z"
             style="fill:#000000;fill-opacity:1;fill-rule:nonzero;stroke:none"
             id="path24" />
        </g>
        <g
           id="g26"
           transform="translate(298.75,161.4552)">
          <path
             d="m 0,0 v 5.467 c -2.029,0.278 -4.075,0.417 -6.124,0.416 -24.647,0 -44.626,-19.969 -44.626,-44.601 0,-15.442 7.853,-29.052 19.785,-37.057 -7.87,8.041 -12.72,19.046 -12.72,31.184 C -43.685,-20.272 -24.213,-0.5 0,0 m 38.87,51.788 c -0.161,0.918 -0.285,1.842 -0.37,2.77 v 3.104 H 14.216 v -96.38 c -0.039,-11.233 -9.161,-20.331 -20.412,-20.331 -3.304,0 -6.422,0.783 -9.184,2.176 3.73,-4.893 9.62,-8.05 16.249,-8.05 11.25,0 20.374,9.097 20.413,20.332 v 96.379 z m 33.275,-33.03 v 5.136 c -6.315,-0.01 -12.506,1.758 -17.863,5.101 4.742,-5.19 10.988,-8.768 17.863,-10.237"
             style="fill:#00f2ea;fill-opacity:1;fill-rule:nonzero;stroke:none"
             id="path28" />
        </g>
        <g
           id="g30"
           transform="translate(652.2715,98.3282)">
          <path
             d="M 0,0 C 17.635,0 31.931,14.181 31.931,31.672 31.931,49.162 17.635,63.345 0,63.345 H -4.811 C 12.824,63.345 27.12,49.163 27.12,31.672 27.12,14.181 12.824,0 -4.811,0 Z"
             style="fill:#ff004f;fill-opacity:1;fill-rule:nonzero;stroke:none"
             id="path32" />
        </g>
        <g
           id="g34"
           transform="translate(647.0244,161.6734)">
          <path
             d="m 0,0 h -4.81 c -17.633,0 -31.932,-14.183 -31.932,-31.673 0,-17.492 14.299,-31.672 31.932,-31.672 H 0 c -17.636,0 -31.932,14.18 -31.932,31.672 C -31.933,-14.183 -17.636,0 0,0"
             style="fill:#00f2ea;fill-opacity:1;fill-rule:nonzero;stroke:none"
             id="path36" />
        </g>
        <g
           id="g38"
           transform="translate(690.3223,175.9884)">
          <path
             d="m 0,0 v -77.226 h 18.374 v 19.955 l 5.685,5.211 17.935,-25.599 h 19.684 l -25.809,37.311 23.182,22.563 H 36.746 L 18.374,-36.006 V 0 Z m -198.136,0 v -77.226 h 18.371 v 19.955 l 5.687,5.211 17.931,-25.599 h 19.681 l -25.808,37.311 23.182,22.563 h -22.305 l -18.368,-18.221 V 0 Z m -26.239,-24.73 h 18.365 v -52.496 h -18.365 z m 0,15.62 c 0,5.03 4.105,9.11 9.177,9.11 5.077,0 9.187,-4.08 9.187,-9.11 0,-5.031 -4.107,-9.111 -9.187,-9.111 -5.072,0.003 -9.177,4.08 -9.177,9.111 M -132.088,0 v -16.054 h 18.805 v -61.173 h 18.812 v 60.74 h 15.307 L -73.916,0 Z m -153.963,0 v -16.054 h 18.805 v -61.173 h 18.812 v 60.74 h 15.308 L -227.878,0 Z"
             style="fill:#000000;fill-opacity:1;fill-rule:nonzero;stroke:none"
             id="path40" />
        </g>
        <g
           id="g42"
           transform="translate(631.7129,130.0001)">
          <path
             d="m 0,0 c 0,8.508 6.956,15.399 15.532,15.399 8.571,0 15.526,-6.891 15.526,-15.399 0,-8.508 -6.955,-15.404 -15.526,-15.404 C 6.956,-15.402 0,-8.508 0,0 m 15.746,-31.672 c 17.634,0 31.933,14.181 31.933,31.672 0,17.49 -14.298,31.673 -31.933,31.673 H 15.311 C -2.324,31.673 -16.62,17.491 -16.62,0 c 0,-17.491 14.296,-31.672 31.931,-31.672 z"
             style="fill:#000000;fill-opacity:1;fill-rule:nonzero;stroke:none"
             id="path44" />
        </g>
      </g>
    </g>
  </g>
</svg>
